<?xml version="1.0" standalone="no"?>
<!DOCTYPE svg PUBLIC "-//W3C//DTD SVG 1.1//EN" "http://www.w3.org/Graphics/SVG/1.1/DTD/svg11.dtd" >
<svg xmlns="http://www.w3.org/2000/svg">
<metadata></metadata>
<defs>
<font id="braveregular" horiz-adv-x="806" >
<font-face units-per-em="2048" ascent="1638" descent="-410" />
<missing-glyph horiz-adv-x="419" />
<glyph horiz-adv-x="591" />
<glyph horiz-adv-x="591" />
<glyph unicode="&#xd;" horiz-adv-x="2048" />
<glyph unicode=" "  horiz-adv-x="419" />
<glyph unicode="&#x09;" horiz-adv-x="419" />
<glyph unicode="&#xa0;" horiz-adv-x="419" />
<glyph unicode="!" horiz-adv-x="425" d="M47 -49q0 10 2 16q3 13 9.5 22.5t20.5 21t17 14.5q24 24 49 34q23 10 41 15q16 4 27 4q7 0 23 -4q14 -4 26 -19.5t17 -31.5q3 -9 5 -27.5t5 -26.5q1 -2 3 -5t3.5 -5t2.5 -5.5t1 -6.5q0 -5 -6 -23q-2 -7 -1.5 -17.5t-0.5 -17.5t-21 -22q-27 -21 -30 -23q-10 -5 -45 -10 q-14 -2 -43 -2h-5q-43 0 -45 4q-7 17 -31 54.5t-24 60.5zM49 1286q0 19 4.5 57.5t5.5 55.5v14q0 11 -1 34t-1 34q0 65 25 90q2 6 10.5 15t9.5 18q12 4 21 4q11 0 21 -4t17.5 -8.5t16 -15t13 -17t12 -21.5t10.5 -21.5t10.5 -24t9.5 -21.5q26 -59 54 -154t32 -152 q0 -4 1.5 -11t1.5 -11q0 -24 -6 -70.5t-7 -68.5q-3 -70 -14.5 -361.5t-18.5 -398.5q-10 -4 -26 -4q-15 0 -28 8t-21 18t-15.5 29t-11 30t-9 33t-7.5 27q-38 137 -45 174q-11 56 -11 142q0 11 5.5 30t5.5 31q0 32 -9.5 92.5t-11.5 83.5v21q0 14 1 38.5t1 36.5q0 25 -2 35 q-3 23 -23 93.5t-20 119.5z" />
<glyph unicode="&#x22;" horiz-adv-x="579" d="M74 1423q0 17 2 27q7 34 35 53t63 19q42 0 90 -29q0 -2 1 -7t1 -7q0 -26 -8 -75.5t-8 -78.5q-12 -33 -23.5 -91t-22.5 -88t-30 -30q-9 0 -37.5 91.5t-36.5 92.5q-26 35 -26 123zM346 1419q0 17 2 27q7 34 35 53t63 19q43 0 91 -29q0 -2 1 -7t1 -7q0 -26 -8.5 -75.5 t-8.5 -78.5q-12 -33 -23.5 -91t-22.5 -88t-30 -30q-9 0 -37 91.5t-36 92.5q-27 36 -27 123z" />
<glyph unicode="#" horiz-adv-x="1421" d="M49 496q0 5 6.5 9.5t16.5 9.5t16 11q6 5 24.5 10.5t45 12t39.5 10.5q28 8 88 27t86 26q10 5 15.5 15t9.5 27t7 24q3 8 15.5 35t19.5 44.5t14 44t7 48.5q0 14 -2 22q-21 7 -45 7q-26 0 -89.5 -7.5t-93.5 -7.5q-41 0 -65 8q39 37 135 37q15 0 44 -1t44 -1q48 0 80 11 q26 20 42 51.5t30 75.5t26 67q48 90 152 109q18 -26 18 -64t-29 -108t-32 -99q97 -10 114 -10q86 0 136 31q32 19 48.5 58.5t31 83t38.5 65.5q-2 6 -2 16q0 14 6 32.5t7 26.5h151q8 -8 8 -14q0 -8 -12.5 -21.5t-15.5 -19.5q-3 -8 -10.5 -30t-12.5 -33q-1 -2 -10 -6.5 t-10 -6.5q-1 -3 0.5 -10t-0.5 -10q-26 -44 -43 -88q24 -8 49 -8q34 0 100 26.5t105 26.5h6q-8 -55 -84 -55h-14q-17 -4 -29.5 -15t-25.5 -27.5t-21 -23.5q-3 0 -8.5 1t-8.5 1q-27 0 -82 -22q-21 -15 -33.5 -41t-23.5 -66.5t-18 -56.5q30 -15 61 -15q34 0 97 23.5t96 23.5 q26 0 49 -10q-24 -36 -82.5 -48.5t-132 -18.5t-109.5 -21q-28 -46 -48.5 -100t-47.5 -142.5t-35 -113.5q-26 -6 -82 -28.5t-92 -27.5q-6 4 -7.5 9.5t0 9t4.5 8.5t3 6q17 71 43 99q6 6 11 37.5t12 48.5q7 15 26 47.5t29 59t10 52.5v4q-24 7 -43 7q-37 0 -109 -25t-108 -27 q-17 -31 -33.5 -72.5t-26 -70.5t-26 -83.5t-23.5 -76.5q-13 -4 -43 -17t-55 -19.5t-55 -6.5h-10q-2 10 -2 29q0 43 32.5 128.5t34.5 135.5q-31 -6 -129 -42t-147 -36q-3 0 -8.5 1t-8.5 1q-6 6 -6 13zM565 668q5 0 14 -1t13 -1q44 0 115.5 17t115.5 17h13q5 13 21 49.5 t23.5 55t17 51t13.5 62.5q-23 2 -65 2q-89 0 -195 -25l-14.5 -29l-15.5 -31t-13.5 -28.5t-14 -33t-11 -31.5t-10.5 -37t-7 -37z" />
<glyph unicode="$" horiz-adv-x="1236" d="M6 260q9 10 79.5 95.5t115.5 121.5q16 -2 45 -2q13 0 34.5 1t32.5 1q33 0 62 -10q-7 -16 -24.5 -28t-33 -16.5t-44 -11t-40.5 -10.5q-65 -51 -65 -127q0 -22 12.5 -60t12.5 -52q0 -18 -13 -31q78 -118 293 -141q18 15 24 40.5t6.5 65.5t2.5 56q4 23 17 74.5t16 78.5 q4 38 9 121.5t11 126.5q2 12 17.5 77t15.5 99q0 39 -10 64q-110 18 -260 75q-29 51 -29 101q0 36 14.5 76.5t29.5 66t43.5 68.5t37.5 57q45 21 124 67t115 64v14q0 43 5 93.5t6 76.5q-6 9 -21 9q-8 0 -31.5 -5.5t-35.5 -5.5q-21 0 -31 13q4 43 151 53q12 2 39 2 q17 0 49.5 -1t47.5 -1q69 0 102 22q18 -9 18 -22q0 -20 -29.5 -36.5t-58.5 -16.5h-6v-152q20 -11 67.5 -30.5t85 -40t64.5 -48.5q42 -42 45 -55q4 -16 4 -37q0 -45 -26 -61q-6 -4 -19 -4q-8 0 -15 3.5t-14.5 10.5t-12.5 12.5t-13.5 17t-11.5 15.5q-2 3 -9.5 7t-11.5 10 t-2 16q-21 4 -69 23t-82 20q-35 -169 -66 -402q22 -15 47.5 -22t66 -12t60.5 -9q29 -6 86 -32q2 -1 12.5 -5t14 -6t11.5 -7t14.5 -11t13.5 -14q9 -11 28.5 -46.5t36.5 -52.5q13 -13 23 -78t10 -120v-29q-5 -51 -45.5 -119t-52.5 -108q-3 -3 -35.5 -23.5t-40.5 -42.5 q-11 -28 -15.5 -38t-15.5 -30t-21.5 -30t-27.5 -22t-39 -21q-4 -2 -17 -12t-16 -11q-15 -4 -51.5 -4.5t-56.5 -5.5q-9 -3 -34.5 -18t-43.5 -15h-10q-2 -21 -17.5 -53.5t-15.5 -58.5v-17q7 -12 37 -12q7 0 23.5 1t23.5 1q30 0 37 -12q-13 -30 -51 -44.5t-78 -17t-82 -13.5 t-61 -34q-24 21 -50 21q-16 0 -54 -10.5t-62 -10.5h-19q3 29 27 41.5t61.5 19t53.5 15.5q26 67 26 129q0 27 -4 35q-20 20 -63 20q-7 0 -22.5 -1t-22.5 -1q-15 0 -23 2q-15 3 -31 9t-40.5 17.5t-37.5 16.5q-4 2 -27.5 12t-30.5 13.5t-26.5 12.5t-28 15t-22.5 15.5t-23 19.5 t-16 21q-2 2 -4 24t-6 31q-1 1 -8.5 16.5t-11.5 24.5t-10 25t-9 31.5t-4 31.5zM408 911q23 -9 52 -16t66 -14.5t56 -12.5q53 157 53 336q-40 -3 -70 -19t-48.5 -38.5t-32 -58t-20.5 -67.5t-13 -77q-2 0 -10 -1.5t-11 -2.5t-9 -3.5t-8.5 -5t-4 -8t-0.5 -12.5zM526 -205 q6 0 13 -5.5t10 -6.5q0 6 4.5 12.5t5.5 9.5q-6 0 -11.5 5t-8.5 6q0 -6 -6 -12t-7 -9zM676 104q0 -39 14 -71q90 13 172.5 70.5t120.5 146.5q27 64 33 151q2 27 2 74q0 82 -20.5 130.5t-69.5 101.5q-23 24 -37 37t-38 25.5t-48 12.5h-19h-20q0 -16 -12 -32q0 -3 1 -8.5 t1 -8.5q0 -45 -20 -132.5t-25 -123.5q-4 -34 -5 -110t-6 -117q-2 -16 -11.5 -47t-10.5 -51q0 -8 -1 -24t-1 -24zM733 1552q0 -3 2 -5.5t4.5 -1.5t3.5 7q0 7 -6 7q-4 0 -4 -7zM1096 358q0 -5 13 10q5 5 5 7q0 3 -12 -6q-6 -9 -6 -11zM1102 475q0 -12 6 -15q2 -1 3 3l1 4v2 q0 16 -6 16q-4 0 -4 -10zM1102 518q0 -12 6 -15q2 -1 3 3l1 4v2q0 16 -6 16q-4 0 -4 -10z" />
<glyph unicode="%" horiz-adv-x="1064" d="M37 1180q0 86 54 141t145 55h4q3 -28 20 -46.5t34.5 -35t20.5 -39.5v-18q0 -63 -50 -106.5t-120 -43.5q-53 0 -102 27q-6 23 -6 66zM166 223q0 26 8 45q7 17 17.5 61t15.5 60q8 30 29 87t24 65q146 442 207 596q13 32 57.5 130t61.5 152q24 1 85.5 11t92.5 10 q38 0 61 -10q13 -23 13 -39q0 -26 -27 -67.5t-29 -45.5q-14 -27 -65 -141q-53 -116 -142 -283q-61 -116 -108 -217q-48 -101 -86 -227q-4 -12 -9.5 -48.5t-15.5 -61t-30 -42.5v-12q0 -83 -54 -140q-4 0 -10.5 -1t-9.5 -1q-25 0 -68 13q-18 74 -18 106zM756 289q0 11 4 35 q10 44 45 68t80 24q48 0 92 -27q2 -36 22.5 -95t20.5 -101q-51 -37 -152 -37q-25 0 -65 4q-47 63 -47 129z" />
<glyph unicode="&#x26;" horiz-adv-x="1009" d="M-227 125q2 0 5 1t5 1q26 0 40 -21t25.5 -52.5t24.5 -45.5q9 -9 31 -20q16 -4 22 -4q35 0 78 24q8 4 16.5 16t14.5 17t20 10t19 10q10 10 28.5 38.5t24.5 35.5q3 3 28.5 25t34.5 39q5 9 14.5 40t16.5 46q5 13 19 34t18 29q7 14 18 44t15 40q5 11 19 32.5t18 31.5 q7 19 22 83.5t25 96.5q7 24 20 60.5t20 60.5t7 41q0 38 -8 49q-2 3 -11.5 5.5t-11.5 6.5q-2 3 -8 10.5t-8 10.5q-2 4 -4 14.5t-4 15.5q-6 12 -12 25t-13.5 30.5t-13.5 30.5q-1 3 -7.5 11.5t-7.5 9.5q-5 15 -9.5 50.5t-6.5 45.5q-1 6 -8 36.5t-10.5 47.5t-7 46t-3.5 54 q0 35 6 70q1 4 8 15t9 16q8 24 18.5 41t27.5 31t29.5 21.5t39.5 22.5q44 21 114 21q40 0 78 -10q25 -61 25 -117q0 -38 -9 -84q-2 -9 -8.5 -26t-7.5 -27q-2 -18 -3 -53.5t-3 -53.5q-8 -62 -47 -274q4 -14 14.5 -29t17 -22t25.5 -24t21 -19q4 -4 18.5 -17.5t24 -24 t18.5 -22.5q12 -15 35 -31.5t53 -35.5t43 -29q6 -5 24.5 -20.5t28.5 -22.5q8 -5 30 -14t32 -17q2 -1 4.5 -11t3.5 -11q52 -33 92.5 -95.5t40.5 -146.5q0 -3 -1 -11t-1 -12q-1 -17 -4 -34t-5 -26.5t-9.5 -28.5t-9 -23.5t-13 -28.5t-12.5 -27q-57 -124 -123 -180 q-50 -41 -148 -63q-5 -1 -19 0.5t-19 -0.5q-4 -1 -11 -11.5t-12 -11.5q-48 -10 -88 -10h-4q-24 0 -70 23q-5 3 -9.5 7t-8 8t-10 11.5t-11.5 13.5t-20 15.5t-19 17.5q-2 2 -7 18t-9 23q-3 4 -11.5 16.5t-10.5 16.5q-2 5 -4 24.5t-5 28.5q-2 5 -7.5 14t-6.5 17q-6 35 -6 63 q0 106 76 170q57 50 94 50q25 0 51 -17q12 -7 23 -19t8 -24q-8 -22 -21 -22q-7 0 -23 11t-24 11q-38 0 -78 -22q2 -11 8 -72t15 -96q3 -14 7.5 -26t12 -25.5t11 -19.5t15.5 -24t15 -22q8 -12 20.5 -33t19 -31t17 -20t21.5 -12h10q8 0 16.5 2.5t18.5 8t15.5 9t17 12.5 t14.5 11q49 33 70 63q2 36 8 63t20.5 65t18.5 52q18 56 18 95q0 11 -4 43q-27 152 -176 297q-4 3 -12.5 5t-11.5 5q-4 4 -23 25.5t-32 34t-33.5 24.5t-38.5 12h-4q-14 -4 -22 -16t-15 -40t-8 -30q-7 -20 -54 -174t-80 -227q-8 -18 -22 -43q-9 -18 -20 -36t-26 -42t-24 -39 q-2 -4 -4 -15t-4 -16q-1 -3 -7 -5.5t-7 -4.5q-1 -3 -5 -13.5t-7 -18.5t-5 -11q-13 -13 -37 -33q-2 -2 -11.5 -4.5t-12.5 -5.5q-1 -1 -4 -10.5t-4 -10.5q-4 -2 -17.5 -4.5t-19.5 -5.5q-7 -4 -30 -14t-40 -19q-2 -1 -12 -10t-12 -10q-6 -2 -53 -7.5t-70 -25.5q-8 19 -19 19 q-4 0 -16 -4.5t-21 -4.5q-1 0 -3 1.5t-3 1.5q-57 83 -69 231zM367 1491q2 -29 5 -91t5.5 -95.5t7.5 -77.5t12 -74q2 -7 7 -30.5t8 -34.5t11.5 -24t20.5 -17q7 7 12.5 18.5t9.5 28t6 29.5t5.5 36t5.5 35q19 112 19 168q0 100 -49 149q-10 -4 -41.5 -7.5t-44.5 -12.5z" />
<glyph unicode="'" horiz-adv-x="311" d="M55 1464q0 17 2 27q7 34 35 53t64 19q42 0 90 -29q0 -2 1 -7t1 -7q0 -26 -8.5 -75.5t-8.5 -78.5q-12 -33 -23 -91t-22 -88t-30 -30q-9 0 -37.5 91.5t-36.5 92.5q-27 36 -27 123z" />
<glyph unicode="(" horiz-adv-x="647" d="M25 864q0 77 18 199q5 32 12 62.5t20 75.5t17 61q3 10 6.5 27t7.5 31t9 26q6 15 23 38.5t20 28.5q7 10 17.5 33t17.5 33q11 15 37.5 37t35.5 32q60 60 119 82q30 15 59 15q33 0 39 -25q7 -30 17 -41q1 -2 5 -6t5.5 -6t4 -6t3 -6.5t-0.5 -6.5t-3 -8q-3 -5 -8.5 -8.5 t-14 -7t-12.5 -6.5l-4 -5q-21 -21 -53 -40q-13 -8 -39.5 -21t-46 -26t-31.5 -29q-36 -48 -41 -99q-4 -44 -16 -67q-4 -8 -15.5 -23.5t-15.5 -23.5q-14 -32 -14 -80q0 -8 1 -23.5t1 -23.5q0 -19 -2 -29t-8 -33t-7 -37q-2 -14 -2 -45q0 -21 3 -59.5t4 -48.5v-23q0 -5 -11 -112 q-2 -10 -2 -31q0 -30 17 -104q8 -29 26 -113q15 -80 19 -90q4 -12 16.5 -55t23.5 -70t29 -51q1 -2 11.5 -17.5t16 -23.5t16.5 -17t20 -10h4q12 0 37 14.5t30 16.5q21 8 52 8q30 0 55 -14q22 -12 22 -35q0 -7 -4 -31q-2 -8 -2 -16.5t1 -19t1 -15.5v-10q-2 -14 -15.5 -22.5 t-23.5 -9.5l-30 -3q-5 0 -15.5 -1t-15.5 -1q-39 0 -59 2h-35q-4 0 -29 10q-11 4 -37 8q-21 4 -55 23q-8 4 -13 11.5t-10 18t-8 15.5q-3 6 -43 63q-6 8 -19.5 23.5t-22.5 28.5t-15 28q-16 36 -16 74q0 12 2 32.5t2 30.5q0 13 -8 37.5t-9 32.5q-17 85 -20 152q-1 21 -11 56.5 t-12 49.5q-6 27 -20 121q-8 44 -8 98z" />
<glyph unicode=")" horiz-adv-x="647" d="M39 74q0 22 24 35q25 14 56 14q22 0 49 -10q5 -2 30.5 -15.5t37.5 -13.5h6q9 1 19 9.5t16 16.5t15 22.5t11 17.5q14 19 25.5 43t17.5 41.5t15.5 48t13.5 43.5q6 17 10.5 51t5.5 41q5 24 29 112q14 61 14 105q0 19 -2 29q-8 78 -8 112v23q1 13 2.5 34.5t2.5 39.5t1 34 q0 19 -4 47q-1 15 -6 39.5t-6 30.5q-2 10 -2 27q0 8 1 24.5t1 24.5q0 41 -17 80q-4 8 -14 22.5t-14 22.5q-13 26 -17 67q-5 53 -41 101q-12 16 -31 28.5t-45.5 25.5t-39.5 21q-37 23 -54 39q-1 1 -3 2t-3 2q-4 3 -12.5 6.5t-14 7.5t-8.5 9t-3.5 9t2 8.5t4 7t6.5 7.5t6 7 q11 13 18 41q5 24 39 24q35 0 59 -12q59 -22 119 -82q9 -10 36 -32t38 -37q7 -10 17.5 -33t17.5 -33q5 -8 14.5 -21.5t17 -25.5t11.5 -23q5 -12 8.5 -25.5t7 -30t6.5 -26.5q40 -151 47 -200q21 -143 21 -197q0 -56 -8 -100q-4 -27 -23 -119q-2 -10 -10.5 -49t-9.5 -60 q-2 -45 -23 -149q-1 -7 -8.5 -32t-7.5 -38q0 -10 3 -30.5t3 -32.5q0 -38 -16 -74q-6 -15 -15.5 -28t-23 -28t-19.5 -24q-40 -57 -43 -63q-3 -5 -8 -16t-10 -19t-13 -12q-28 -16 -55 -21q-18 -3 -39 -10q-3 -1 -5.5 -2.5t-5 -2.5t-5 -2.5t-5 -2t-5.5 -0.5q-5 0 -17 1t-18 1 q-20 -2 -60 -2h-32q-15 1 -21.5 2t-19.5 4.5t-19.5 10.5t-7.5 18q0 2 -1 6t-1 6q0 3 2.5 24.5t-0.5 26.5q-1 4 -3.5 15t-2.5 16z" />
<glyph unicode="*" horiz-adv-x="1009" d="M0 1104q0 8 4 24q30 13 84 13q12 0 34 -1t34 -1h20q-1 27 -13 47t-28.5 33t-34 25t-33 29.5t-20.5 39.5q1 20 14.5 30t33.5 18t28 17q14 4 40 22t46 21q45 -7 101 -48.5t73 -49.5q23 23 23 98v54q0 52 10 77v11q0 15 -12.5 30t-12.5 29q0 10 2 16h207q27 -41 27 -110 q0 -12 -1 -34t-1 -34q0 -37 8 -61q20 5 45.5 26.5t45.5 44.5t47.5 41.5t51.5 18.5h4q15 -1 26.5 -6.5t17.5 -11.5t19.5 -22t22.5 -26q7 -7 33 -10t33 -10q-1 -25 -13 -40t-37 -31.5t-36 -26.5q-23 -22 -76 -76t-65 -66q29 -36 94.5 -92.5t89.5 -81.5q0 -8 -4 -15.5 t-12.5 -14.5t-15 -11.5t-18.5 -11.5t-16 -10q-4 -2 -29.5 -23t-47 -32t-41.5 -11q-29 0 -50 15.5t-43 35t-49 25.5q-29 -6 -38.5 -37.5t-12.5 -74.5t-14 -62q-8 -2 -25 -2q-22 0 -45 4t-51 11t-41 9q-12 2 -36 4.5t-38.5 5t-33.5 8.5t-33 15q4 32 32 77t33 75q-8 2 -26 2 q-29 0 -97.5 -19.5t-99.5 -19.5q-11 0 -27 4q-23 23 -40 59t-17 68z" />
<glyph unicode="+" horiz-adv-x="1150" d="M2 1038q51 21 66 54q18 -5 46 -26.5t50 -27.5q27 -8 63 -8q22 0 67.5 4t67.5 4h19q22 135 22 176q0 6 -3 25t-3 27q0 29 29 32q1 0 3 -1t3 -1q0 1 -1 3.5t-1 3.5q3 28 37 28q17 0 45 -8q45 10 109 10q84 0 108 -24q-18 -28 -28.5 -64t-22 -98.5t-14.5 -77.5 q39 -25 127 -25q27 0 85 3.5t85 3.5q87 0 126 -25q-5 -36 -22.5 -96t-22.5 -88q-53 -13 -127 -13q-34 0 -98.5 4.5t-91.5 4.5q-32 0 -72 -7q-12 -33 -19 -75.5t-13.5 -99.5t-10.5 -85q-2 -4 -2 -12q0 -10 8 -14t17.5 -4.5t16 -6.5t3.5 -18q-10 -2 -83 -23.5t-107 -21.5 q-19 0 -27 2h-2q-18 0 -32 -21.5t-33 -21.5h-9q-4 28 -4 45q0 41 20.5 132t20.5 147q0 19 -4 55q-42 45 -207 45h-53q-17 -1 -49.5 -8.5t-46.5 -7.5q-17 0 -25 4q-6 6 -6 24q0 13 9 42t10 42q2 8 2 21q0 16 -12 35.5t-13 31.5z" />
<glyph unicode="," horiz-adv-x="397" d="M63 -145q0 18 26.5 52.5t31.5 51.5q-2 10 -2 33q0 42 24 164q2 14 11 47t10 49q0 3 1 9t1 9q0 14 -3 40t-3 38q0 23 4 35q106 20 149 20q54 0 90 -20q-8 -29 -32 -86.5t-33 -87.5q-6 -17 -22.5 -82.5t-30.5 -101.5q-3 -9 -11.5 -37t-16 -44.5t-17.5 -27.5 q-41 -45 -172 -76q-5 10 -5 15z" />
<glyph unicode="-" horiz-adv-x="1157" d="M47 868q0 18 6 27q18 27 101 33q12 2 36 2q25 0 71 -3.5t58 -4.5q271 -10 328 -11q7 0 20.5 -1t20.5 -1q46 0 139.5 4.5t139.5 4.5q6 0 18.5 1t18.5 1q36 0 56.5 -10.5t20.5 -41.5q0 -12 -3 -33t-3 -32q0 -8 3 -23t3 -24q0 -7 -4 -15q-10 -16 -53 -16h-27q-41 0 -127 4 q-136 4 -202 4q-178 0 -336 -14q-62 -4 -90 -4q-24 0 -50 1t-58 2.5t-50 2.5q-1 6 -0.5 23.5t-1.5 23.5q-2 9 -12 24.5t-13 22.5q-10 30 -10 53z" />
<glyph unicode="." horiz-adv-x="292" d="M43 137q0 21 2 31q9 38 39.5 59t69.5 21q43 0 79 -23q2 -31 19.5 -82t17.5 -88q-46 -32 -131 -32q-21 0 -57 4q-39 51 -39 110z" />
<glyph unicode="/" d="M18 133q0 20 11.5 47t28.5 58t22 45q62 153 76 194q15 39 22 66q3 10 4.5 36t5.5 39q2 7 16.5 22t16.5 22q3 10 5 33t5 32q72 203 109 348l14 59.5t15.5 64.5t15.5 55t21 59q57 140 93 193q31 46 62 65q62 41 144 41h16q15 -1 20 -1.5t14 -2.5t12 -5t3 -8q0 -9 -8 -22 q-17 -28 -40.5 -85t-33.5 -77q-111 -220 -217 -500q-4 -11 -35 -96t-51 -131q-6 -16 -20.5 -50.5t-24.5 -58.5q-21 -49 -51 -143.5t-45 -132.5q-7 -17 -20.5 -58t-23 -66.5t-28.5 -55.5t-43 -47q-12 -9 -29 -9q-30 0 -56 22t-26 48z" />
<glyph unicode="0" horiz-adv-x="866" d="M12 635q0 9 6 29t5 24l-5 2q-6 3 -6 8q0 13 11.5 36t11.5 34q0 14 -6 50t-6 59v18q4 55 45 195q21 76 43 141q26 79 141 194q1 1 3 2.5t3 2.5l12 6h4h2q3 0 7 4l2 2q1 1 3 4t3 4q2 2 8 2h4q13 0 19 -2q12 -3 26 -10q7 -4 25 -8q2 0 8.5 -3.5t9.5 -3.5h6q10 0 31 6t29 7 t32 5.5t31 4.5h2q19 -3 35.5 -13.5t44.5 -37t39 -35.5t32 -25t33 -25.5t25 -22.5t19 -25q3 -6 5.5 -29.5t6.5 -36.5q3 -8 10.5 -25t9.5 -28q3 -12 9.5 -55.5t13.5 -65.5q6 -23 35.5 -85.5t29.5 -92.5q0 -10 -5.5 -39.5t-6.5 -42.5q-1 -12 -2 -100t-8 -127 q-9 -48 -41.5 -147.5t-34.5 -145.5q-62 -46 -76 -54q-3 -2 -15 -5.5t-17 -6.5q-6 -5 -20 -21.5t-23 -21.5q-25 -16 -61 -23t-97.5 -11.5t-91.5 -8.5q-18 -2 -57.5 -10t-57.5 -8q-46 0 -92 41q-7 6 -14 14.5t-15.5 20t-13.5 18.5q-2 2 -11.5 13.5t-12 15.5t-11.5 15 t-12.5 16.5t-10 16t-10 18.5t-8 17.5t-7 19t-3.5 19.5q-1 8 -12 164q-11 135 -11 152zM272 580q1 -15 10.5 -47.5t12.5 -49.5t4.5 -58t5.5 -63q21 -116 43 -151q1 -2 11 -5t12 -5l10 -23q8 -5 38.5 -10.5t59.5 -5.5q25 0 43 6q27 10 45.5 32t28 54t14.5 64.5t9 76.5 q1 15 2 23q7 56 10 96q0 6 1 18t1 17q0 10 -1 29.5t-1 31.5q0 48 3 150t3 153q0 77 -6 144q-4 30 -11 54t-17.5 49t-14.5 38q-4 12 -10 43.5t-13 44.5q-51 96 -112 96h-7q-30 -25 -50 -56t-29 -54.5t-29 -83.5q-28 -86 -33 -109q-10 -44 -14 -100t-5 -134.5t-3 -113.5 q-1 -21 -6 -67.5t-5 -69.5v-14z" />
<glyph unicode="1" horiz-adv-x="745" d="M25 1159q0 11 10.5 19.5t27.5 17t23 12.5q9 6 35 26t41 28q20 11 69.5 32.5t71.5 32.5q59 29 182 33q4 -58 4 -86q0 -44 -3 -130t-3 -128q0 -68 2 -101q2 -18 12.5 -57t10.5 -61v-2q0 -11 -5 -34t-5 -36v-6q1 -24 9.5 -71.5t10.5 -67.5q2 -16 2 -50q0 -25 -2 -72.5 t-2 -70.5q0 -39 2 -57q2 -23 17.5 -83.5t15.5 -94.5v-7q3 -13 19 -17t33.5 -2t31.5 -4.5t14 -25.5q0 -18 -24 -18q-6 0 -18 1t-17 1h-6q-31 -4 -99 -4q-35 0 -129 4q-156 8 -206 43q3 24 36 24q16 0 51.5 -7t47.5 -7h6q35 12 35 62q0 7 -1 21t-1 20v6q2 18 2 57 q0 47 -6.5 133.5t-6.5 128.5v29q1 36 10 104.5t11 102.5q2 25 2 71q0 26 -1 75t-1 75v26q0 24 2 72t2 70q0 26 -4 76q-20 4 -29 4q-37 0 -97 -37t-91 -43q-14 -5 -17 -8.5t1 -15t5 -19.5h-75q-6 9 -6 16z" />
<glyph unicode="2" horiz-adv-x="917" d="M8 1165q0 7 8.5 19.5t10.5 17.5q2 6 8.5 31t13.5 35q32 44 107 81t153 37q4 0 10 -5t11 -5l7 5q7 5 13 5h2q21 -3 55.5 -21.5t43.5 -21.5q24 -84 24 -196q0 -140 -47 -379q-3 -15 -13.5 -83.5t-19.5 -100.5q-3 -9 -16 -26.5t-17 -27.5q-8 -23 -23.5 -71t-29.5 -81.5 t-33 -64.5q-5 -7 -20 -29.5t-24.5 -37t-19 -38.5t-11.5 -46q24 -6 47 -6q33 0 97.5 13t92.5 15q11 1 30 -5.5t26 -6.5q41 0 147 22.5t154 22.5q24 0 34 -2q11 -22 11 -43q0 -65 -119 -86q-73 -12 -182 -12h-2q-17 0 -44 6t-40 6h-2q-64 -2 -184 -18.5t-183 -16.5q-7 0 -23 1 t-24 1q-2 6 -2 21q0 23 21.5 59.5t25.5 48.5q8 20 21 68.5t22 73.5q3 8 45.5 111t62.5 161q59 184 86 293q4 15 17.5 66t19.5 76t12.5 64.5t6.5 69.5q0 105 -66 158q-15 6 -37 6q-33 0 -73 -11.5t-64 -27.5q-5 -4 -10.5 -9t-12 -12.5t-10.5 -11.5q-5 -6 -16.5 -16t-15.5 -16 q-5 -7 -10 -28.5t-14.5 -34.5t-29.5 -13q-8 12 -8 16z" />
<glyph unicode="3" horiz-adv-x="751" d="M4 1260q2 27 19 46t43 19h4q3 0 32.5 -1t51.5 -1q16 0 47 1t43 1h14h39h12q4 0 14 5.5t19 4.5q3 -1 8.5 -6t11.5 -4q11 1 57.5 17t74.5 16q21 0 58 -10.5t50 -12.5q-10 -35 -32 -72.5t-41 -62.5t-52.5 -65.5t-48.5 -59.5q-31 -40 -92 -118.5t-92 -118.5q40 -14 137 -15.5 t145 -29.5q2 -1 5.5 -10.5t5.5 -10.5q3 -1 10 0.5t10 -0.5q2 -1 6 -11t6 -11q3 -1 11.5 0.5t9.5 -0.5q2 -1 6 -10.5t6 -10.5q12 -5 21.5 -13t15 -16t16.5 -26q3 -4 5.5 -16.5t5.5 -16.5q1 -2 11 -5.5t11 -4.5q13 -31 23 -82t10 -80q0 -57 -33 -154q-1 -3 -11 -10.5t-11 -9.5 q-1 -4 0.5 -17t-0.5 -16q-1 -2 -10.5 -5t-10.5 -5q-9 -20 -18.5 -31t-36.5 -35q-5 -5 -20.5 -22.5t-22.5 -20.5q-15 -8 -35 -13.5t-51 -10.5t-43 -8q-15 -3 -63 -17.5t-68 -15.5q-6 0 -19 -1t-20 -1q-139 0 -156 88q8 8 14 8q7 0 23 -20.5t33 -20.5h6q41 -2 111 -2 q116 0 192 35q39 30 62.5 85t23.5 116q0 93 -53 157q-3 4 -24 41t-29 45q-4 4 -25 15t-31 18q-4 3 -39.5 31.5t-61.5 45t-50 21.5q-45 9 -60 9q-19 0 -59 -9q-19 36 -19 56q0 15 7 43q1 3 11 5.5t11 4.5q2 4 0 16.5t0 16.5q1 2 11.5 5t11.5 5q1 3 0 11t0 11q1 2 10 5.5 t10 5.5q4 9 9.5 30t13.5 35q3 5 8 15.5t9 17t9.5 14.5t12 12.5t14.5 6.5q11 43 55 114t53 123q-40 4 -63 4q-106 0 -295 -36z" />
<glyph unicode="4" horiz-adv-x="733" d="M39 262q2 231 51.5 615t56.5 589h13q26 0 68 11.5t69 11.5q17 0 25 -2q4 -24 4 -35q0 -41 -26 -119.5t-32 -115.5q-14 -84 -14 -242q0 -38 1 -114.5t1 -115.5q0 -133 -10 -223q-3 -25 -19 -81.5t-16 -86.5q0 -18 2 -26q2 0 7 -1t7 -1q41 0 66.5 22.5t37.5 55t24 64.5 t37.5 54.5t66.5 22.5h4q-9 -130 -43 -230q24 -28 74 -28q23 0 78.5 10t86.5 10q21 0 31 -2v-8q0 -23 -13 -35t-28.5 -14.5t-41 -3.5t-36.5 -4q-12 -3 -39 -10.5t-46 -11t-37 -3.5q-9 0 -29 4q-16 -12 -23.5 -41t-9.5 -55t-17 -47t-44 -21h-15q0 3 -1.5 5t-4.5 3.5t-5 2 l-6 1.5t-5 1q-13 18 -13 59q0 11 1.5 35t1.5 35v22q-14 -6 -41 -6h-11q-34 0 -57 -16q-10 5 -31 17t-33.5 18.5t-31.5 15t-35 14.5z" />
<glyph unicode="5" horiz-adv-x="776" d="M76 727q12 72 60.5 254t58.5 299q19 -8 43 -8q29 0 84.5 19t78.5 22q72 10 148 10q79 0 123 -10q2 0 14 -2t18 -4t15 -6t13.5 -12t4.5 -19q-18 -6 -39 -6q-25 0 -84.5 10t-95.5 10q-33 0 -51 -4q-22 -14 -29 -37.5t-8 -55.5t-6 -48q-7 -23 -27.5 -70t-27.5 -72 q-6 -18 -19 -70t-24 -81q27 -13 81.5 -17.5t79.5 -15.5q2 -1 6.5 -10t6.5 -10t10 0.5t10 -0.5q5 -4 6.5 -16t5.5 -17q2 -2 12 -12.5t18.5 -21.5t12.5 -21q13 -28 21.5 -57.5t18.5 -79.5t14 -68q1 -3 11.5 -32.5t10.5 -55.5v-21q-1 -9 -5 -19t-13.5 -27.5t-14.5 -29.5 q-3 -7 -14 -36.5t-18 -38.5q-12 -13 -76 -56q-12 -8 -37.5 -26t-38.5 -27q-17 -12 -53.5 -39.5t-59.5 -42t-38 -16.5h-4q-42 0 -117 43q-4 2 -28 12.5t-33 19.5t-9 23q0 9 6 21h4q20 0 36.5 -7.5t32 -19.5t24.5 -16q62 -27 88 -27q42 0 96 59q74 84 76 131q0 7 -5.5 24.5 t-5.5 29.5q0 16 3.5 65.5t3.5 75.5q0 33 -7 65q-2 9 -15 32t-17 34q-5 13 -13.5 36.5t-14.5 38.5t-15.5 32.5t-23 28.5t-30.5 16q-2 14 -21.5 25t-23.5 18q-36 -5 -93.5 -34t-100.5 -32z" />
<glyph unicode="6" horiz-adv-x="831" d="M41 629q0 6 9 20t11 23q4 19 6 57.5t7 61.5q1 6 10 18t10 14q8 34 18 101.5t15 93.5q27 138 119 325q2 3 5.5 20t6.5 23q6 8 45.5 49.5t50.5 49.5q6 4 21 5t22 5q4 2 10.5 9t14 10.5t20.5 3.5q5 0 15 -5q3 -1 8.5 -2t7.5 -2q1 -1 13 -4.5t18 -7.5q10 -6 28 -24 q11 -11 27 -31q18 -27 23 -37q13 -27 18 -43q9 -20 12 -43q4 -28 4 -45q0 -15 -4 -47q-2 -14 -10 -47q0 -2 -2 -6.5t-2 -6.5q-1 -9 0 -27.5t0 -27.5q-4 -32 -14 -41q-10 -10 -23 -10q-26 0 -26 29q0 6 2 18.5t2 17.5q1 16 13.5 74t12.5 92q0 17 -4 41q0 1 -1 2t-1 2 q-7 26 -14 39q-3 5 -25 27q-13 13 -28 22q-6 4 -15 13q-1 1 -3.5 4t-4.5 5t-4 3q-8 4 -18.5 -3.5t-16.5 -16.5q-10 -16 -22 -52q-7 -26 -21 -67q-1 -3 -10 -19.5t-10 -23.5q-2 -6 -2 -21q0 -8 1 -24t1 -23q0 -33 -20.5 -102.5t-24.5 -100.5l-13 -79q-2 -13 -5 -38.5 t-5 -39.5q-2 -12 -6 -37.5t-6 -38.5t-7.5 -38t-7.5 -38l-6 -37q-4 -12 -4 -16q0 -8 -2 -10v-4q0 -7 2 -9q6 -9 17 -12q16 -4 24 -4q33 0 49 4q24 6 45 12q6 2 21 7.5t24 7.5q2 0 19.5 5.5t27.5 6.5h7q14 1 28 -5l15 -5q22 -3 49 4q36 8 55 8q25 0 35 -4q9 -3 16 -10 q9 -9 15 -11t14 -10q3 -2 8 -7t8 -7q3 -3 8.5 -9.5t8.5 -9.5q19 -21 27 -30.5t15 -23t7 -27.5q0 -34 -39 -93q-3 -5 -15 -14.5t-16 -15.5q-9 -12 -24 -27q-5 -4 -14.5 -10t-14.5 -10l-8 -9q-6 -6 -10 -8q-5 -4 -17.5 -12t-17.5 -12l-6 -7q-1 -1 -4.5 -2t-4.5 -2 q-3 -2 -10 -5t-10 -5q-4 -2 -11.5 -6t-11.5 -6q-9 -5 -31 -18t-35 -20t-30.5 -16.5t-31 -14.5t-23.5 -7q-2 0 -6 -1t-6 -1q-32 -4 -52 -4q-29 0 -45 2q-1 0 -18 2t-25 4q-30 9 -41 14q-6 3 -17 9.5t-17 9.5q-20 10 -35 22q-10 8 -29 27q-11 11 -27 31q-21 27 -24 32 q-2 3 -5 10.5t-5 10.5q-1 2 -3.5 5t-3.5 5q-4 8 -4 10q0 3 -1 8.5t-1 8.5q0 2 -4 10v8v21v78v79q0 9 -5 30t-5 26zM258 338q0 -8 6 -14q2 -3 7.5 -9.5t7.5 -9.5q4 -6 16 -14q1 -1 5 -3t5 -3t3 -4.5t3 -4.5q2 -1 5.5 -3t5.5 -3q20 -10 63 -10q63 0 78 10q8 5 36 19.5t40 23.5 q18 14 44.5 40.5t30.5 35.5q15 35 15 64q0 46 -26.5 79t-61.5 33q-2 0 -6.5 -1t-6.5 -1q-19 -3 -41 -10q-23 -7 -45 -16q-7 -3 -22.5 -8.5t-22.5 -8.5q-26 -11 -43 -16q-23 -7 -37 -23q-1 -1 -2 -3t-2 -3q-3 -4 -4.5 -8t-3 -9t-2.5 -9q-1 -6 -12 -27q-6 -10 -13 -30.5 t-10 -26.5q-10 -20 -10 -27z" />
<glyph unicode="7" horiz-adv-x="727" d="M6 1300q2 33 84 33h78h22q7 0 14.5 5t8.5 5l10 -10h74h203h69q16 0 46 3t44 3q43 0 64 -16q-23 -69 -76.5 -210t-77.5 -214q-10 -29 -25 -123.5t-28 -136.5l-25 -75t-28 -99q-9 -40 -34 -177t-44 -212q-56 -33 -152 -33h-20q61 156 109 444q7 40 31.5 205t43.5 250 q66 280 76 336q-61 31 -160 31q-41 0 -121 -6.5t-118 -6.5q-48 0 -68 4z" />
<glyph unicode="8" d="M59 164q0 58 33 176q27 102 55 174q10 28 39.5 87.5t36.5 74.5q5 11 18 40.5t19.5 45t12.5 38.5t6 40q0 19 -6 34t-20 33.5t-20 28.5q-2 4 -20 33.5t-23 44.5q-5 16 -7 52t-3 44q-8 70 -8 88q0 46 18 96q3 9 7 26.5t8 30.5t8 19q1 1 9.5 5.5t10.5 6.5q8 11 42 37t47 39 q27 -8 55 -8q25 0 67.5 8t63.5 8q27 0 51 -8q4 -32 4 -51q0 -40 -10 -89.5t-20.5 -81.5t-32 -91t-27.5 -78q-4 -12 -9 -32t-10 -35t-14 -31q-3 -6 -16.5 -17t-15.5 -16q-5 -11 -10 -46.5t-23 -49.5q1 -24 20.5 -52t22.5 -47v-10q0 -26 15 -56t18 -42q3 -17 31 -27.5 t34 -15.5q8 -6 21 -26t22 -27q17 -15 44.5 -36t48.5 -38.5t38 -34.5q12 -12 30.5 -68.5t18.5 -95.5q0 -21 -6 -33q-5 -9 -16.5 -27t-16.5 -26q-61 -104 -151 -141q-11 -4 -22 -7.5t-18 -5t-22.5 -3.5t-22 -2.5t-31.5 -2t-36 -2.5q-15 -1 -40.5 -5.5t-37.5 -4.5h-10 q-24 3 -60.5 21t-47.5 22q-32 4 -60.5 20t-40 27.5t-39.5 40.5q0 5 -1 14.5t-1 14.5zM180 156q26 -31 79.5 -60.5t102.5 -29.5q34 0 56 14q11 7 19 12.5t16 12.5t11.5 10.5l14.5 14.5l15 15q11 11 23.5 20.5t18 13.5t9.5 11t4 17q0 13 -11.5 40t-11.5 46v4 q-48 26 -126.5 105.5t-123.5 101.5q-6 -18 -23 -64t-25 -70t-19.5 -63t-18.5 -75.5t-10 -75.5zM299 1130q0 -33 11.5 -71t11.5 -55q0 -5 -1.5 -17.5t-1.5 -17.5q0 -23 17 -23q1 0 3 1t3 1q11 8 21.5 23.5t21.5 41t16.5 39.5t16.5 46.5t12 34.5q2 8 8 24.5t9 28.5t4 22 q6 60 6 72q0 84 -49 102h-23q-1 -21 -34.5 -57t-41.5 -63q-4 -12 -10 -109v-23z" />
<glyph unicode="9" horiz-adv-x="751" d="M37 303q0 8 2 12q3 10 12 16.5t17 2.5q6 -3 11.5 -9t11 -17t7.5 -13q36 -56 70 -90q17 -17 33 -25q20 -8 32 -10h23q5 0 35 -6q12 -2 35 -2q15 0 43 4q42 7 52 13.5t34 39.5l6 6l14 15l6 6l4 8q4 4 4 6q0 1 1.5 3t1.5 3v8q4 32 4 48q1 8 2 25.5t2 25.5q1 9 -6.5 27 t-6.5 26q1 10 12 23t11 22q0 12 -5 41t-5 45q0 1 -1 2t-1 2v12v15v12v12v15q0 2 -1 7t-1 7v14v13v14v14q0 2 -1 7.5t-1 7.5v14v14v13q0 2 -1 7t-1 7v12v15q0 1 -1.5 3t-1.5 3v6v6v4v6v4l-2 2h-2h-2q-2 0 -5 -1t-5 -1t-5 -1t-5 -1t-4 -1t-4 -1q-1 0 -4.5 -1t-4.5 -1 q-4 0 -8 -4q-1 -1 -4 -1t-4 -1t-4 -2t-4 -2t-3 -2t-3 -2t-3 -2t-3 -2t-4.5 -1t-4.5 -1t-3 -2t-3 -2t-3 -2t-3 -2t-3 -2.5t-3 -2.5q-2 -2 -8 -2q-1 0 -3 -2t-3 -2t-4.5 -1t-4.5 -1q-4 -2 -12 -2q-8 -4 -12 -4h-10q-2 0 -5.5 1t-5.5 1q-12 0 -18 2q-4 0 -8 4q-3 2 -12.5 12 t-16.5 13q-4 2 -16.5 0t-16.5 0q-3 1 -5.5 10.5t-4.5 11.5q-8 6 -22.5 12t-20.5 11q-27 24 -50 79t-26 105q0 31 2 45q3 28 9 47q10 40 41 86q28 42 61 78q37 40 72 66q33 25 71 47q1 1 4 3t4 3q19 8 31 10q16 4 23 4q7 1 19 -0.5t16 -1.5q22 0 32 2q11 1 33 4.5t33 4.5 q18 2 55 2q36 0 70 -9q20 -5 43 -24q8 -4 10 -8q2 -2 2 -9q0 -1 1 -4t1 -4q0 -3 -1 -8t-1 -8t1 -9.5t1 -9.5t1 -9t1 -9t1 -10t1 -10v-21v-39v-45v-37v-43q0 -7 -1 -21.5t-1 -21.5t-1 -20.5t-1 -20.5t-1 -21.5t-1 -21.5t-1 -21.5t-1 -21.5t-2 -21.5t-2 -21.5t-1 -21.5 t-1 -21.5t-1 -21.5t-1 -21.5t-1 -20.5t-1 -20.5t-1 -21.5t-1 -21.5v-41v-41v-39v-39q0 -4 1 -12t1 -12q0 -14 -6 -45t-6 -47q0 -19 6 -47t6 -39q0 -2 -1 -6.5t-1 -6.5l-6 -24q-1 -6 -11 -25q-2 -4 -14 -22q-1 -2 -3.5 -6.5t-5 -8t-5.5 -6.5t-9.5 -10t-9.5 -10t-8 -9.5 t-8 -9.5t-8.5 -9t-8.5 -9l-16 -16q-2 -3 -7 -9.5t-7 -9.5t-6.5 -10t-6.5 -10q-5 -9 -12 -9h-14q-3 -1 -10.5 -2t-10.5 -2q-7 -2 -22.5 -5t-22.5 -5t-20.5 -7t-20.5 -7q-6 -2 -36 -17q-1 0 -2.5 -1t-2.5 -1q-6 -2 -14 -2q-9 0 -16.5 12.5t-16.5 12.5h-8h-35q-22 0 -32 2 q-40 4 -60 8q-45 10 -57 14q-27 7 -49 15q-36 14 -45 41q-4 10 -10.5 31.5t-10.5 31.5q-10 30 -10 37zM262 991q0 -12 2 -18q5 -16 6 -17q13 -23 19 -28q3 -3 33 -27q41 -29 69 -33h17q18 0 26 2q34 10 61 76.5t27 116.5q0 2 -1 7t-1 7q0 1 -5.5 11t-4.5 22t10.5 37.5 t9.5 38.5q0 39 -4 59q-2 14 -10 47q-8 24 -8 39q0 23 -4 27q-6 6 -37 12h-2q-2 0 -6 -1t-6 -1t-8.5 -1t-8.5 -1q-10 -2 -26 -6q-42 -12 -70 -47q-22 -31 -37 -84q-8 -33 -20 -99q-16 -93 -17 -102q-4 -24 -4 -37z" />
<glyph unicode=":" horiz-adv-x="436" d="M90 909q0 86 54 141.5t145 55.5h4q3 -28 20.5 -46.5t35 -35t20.5 -39.5v-18q0 -63 -50 -106.5t-120 -43.5q-53 0 -103 27q-6 23 -6 65zM119 467q0 11 4 35q10 44 45 68t80 24q48 0 92 -27q2 -36 22.5 -95t20.5 -101q-51 -37 -152 -37q-25 0 -65 4q-47 63 -47 129z" />
<glyph unicode=";" horiz-adv-x="294" d="M51 530q0 67 42.5 110.5t113.5 43.5h2q3 -27 29.5 -50.5t29.5 -43.5v-15q0 -49 -39 -82.5t-94 -33.5q-44 0 -80 20q-4 18 -4 51zM74 186q0 17 2 27q7 34 35 53t63 19q42 0 90 -29q0 -2 1 -7t1 -7q0 -26 -8 -75.5t-8 -78.5q-24 -68 -77.5 -130t-86.5 -62q-4 0 -4 10 q0 16 11 74t11 73q0 10 -4 10q-26 35 -26 123z" />
<glyph unicode="&#x3c;" horiz-adv-x="729" d="M59 788q0 15 18 33t21 23q8 15 70 88q142 167 229 282q2 4 11.5 7.5t11.5 7.5q2 2 2 11t2 11q2 4 10 7.5t10 7.5q1 1 9.5 14t14 20t16 16t20.5 11h8q6 0 18 -4q7 -14 9 -20q1 -5 0.5 -23.5t1.5 -30.5q1 -3 3 -8t3 -8q6 -19 25.5 -58.5t25.5 -68.5q0 -2 1 -4t1 -4 q-20 -38 -63 -84q-9 -11 -34 -32t-38 -36q-3 -3 -6.5 -11.5t-5.5 -10.5q-5 -6 -17 -19t-18 -20q-9 -11 -38.5 -51t-29.5 -43q0 -9 5 -16t16 -11.5t21 -8t27 -5.5t27 -3t27.5 -2.5t22.5 -1.5q13 -20 53 -38t55 -35q4 -5 7 -18t7 -19q1 -2 12 -8.5t11 -8.5q20 -43 33 -112 q10 -63 10 -68h-6q-17 0 -35 8t-39.5 23t-32.5 20q-22 10 -58.5 29.5t-45.5 24.5q-17 9 -53 31.5t-54 31.5q-6 3 -32.5 14t-41 21.5t-24.5 28.5q-42 2 -103.5 40.5t-92.5 45.5q-1 3 -2.5 10t-2.5 10q0 2 -1 7t-1 7z" />
<glyph unicode="=" horiz-adv-x="876" d="M49 715q0 16 4 20q15 22 78 27q10 2 29 2q3 0 102 -6q86 -4 258 -8q5 0 15.5 -1t15.5 -1q36 0 109.5 3t109.5 3q5 0 14.5 1t14.5 1q61 0 61 -41q0 -9 -2 -25.5t-2 -25.5q0 -6 2 -18t2 -19q0 -5 -4 -13q-8 -12 -41 -12h-20q-35 0 -101 4q-53 2 -159 2q-153 0 -263 -10 q-50 -4 -71 -4l-123 6q-1 4 -0.5 18.5t-1.5 18.5q-2 6 -10.5 18.5t-10.5 18.5q-6 15 -6 41zM49 956q0 17 4 21q15 22 78 27h10h19q19 0 57 -3.5t45 -3.5q86 -4 258 -8h31q37 0 110 3t109 3q5 0 14.5 1t14.5 1q61 0 61 -41q0 -9 -2 -26t-2 -25q0 -6 2 -18t2 -19q0 -4 -4 -12 q-8 -12 -41 -12h-20q-31 0 -101 4q-26 0 -79 1t-80 1q-153 0 -263 -10q-50 -4 -71 -4t-62 2t-61 2q-1 6 -1 19t-1 18q-2 8 -10.5 20t-10.5 16q-6 30 -6 43z" />
<glyph unicode="&#x3e;" horiz-adv-x="684" d="M31 428q0 30 6 68q9 64 31 112q0 2 9.5 9.5t10.5 9.5q4 6 7 19t7 18q15 18 53.5 36.5t51.5 40.5q6 1 32 3.5t40.5 4.5t34 7t29 14t9.5 21q0 3 -29.5 42.5t-39.5 51.5l-37 37q-1 1 -6.5 10.5t-8.5 11.5q-13 13 -37.5 32.5t-35.5 31.5q-34 36 -66 82q0 2 1 5t1 5 q4 29 23 67.5t24 59.5q0 3 2 9t2 9q2 13 1.5 29t0.5 22q0 5 9 23q6 4 18 4h8q10 -1 20.5 -9.5t16 -15.5t14.5 -20l9 -14q3 -3 10 -7.5t10 -7.5q2 -2 3 -11t3 -11q3 -3 11.5 -6.5t11.5 -6.5q71 -87 239 -276q46 -50 70 -84q4 -6 23.5 -23.5t19.5 -31.5q0 -2 -1 -7.5t-1 -7.5 q0 -3 -1 -10t-1 -10q-31 -8 -92 -48.5t-103 -43.5q-10 -18 -25.5 -29.5t-38.5 -21t-32 -15.5q-26 -16 -104 -67q-18 -11 -54.5 -30.5t-50.5 -27.5q-12 -6 -32 -21t-37.5 -23.5t-34.5 -8.5h-4z" />
<glyph unicode="?" horiz-adv-x="700" d="M0 1133q0 20 16 124q3 21 10 81t13 92q8 46 24.5 72t61.5 59q67 47 88 53q4 2 12 2q7 0 26 -1t28 -1q2 0 6 -0.5t7.5 -0.5t6.5 1q12 2 30 11.5t25 10.5q14 2 45 2q71 0 95 -12q148 -70 163 -153q2 -10 2 -27q0 -60 -34 -135q-9 -18 -25 -39t-26 -32.5t-36.5 -38.5 t-31.5 -32q-82 -86 -119 -129q-12 -102 -12 -202q0 -68 6 -206t6 -208v-35q-16 -7 -37 -25t-43 -30t-51 -12q-3 0 -11 1t-12 1v26v58q0 43 2.5 134t2.5 140q0 17 -5 119q-1 23 -7.5 82.5t-6.5 91.5q0 57 14 96q5 15 13 24.5t21.5 21t21.5 20.5q6 7 44 43t54.5 55t34.5 57 t18 76q0 24 -10 62q-14 50 -49.5 84t-79.5 34q-18 0 -45 -10q-40 -15 -66 -76q-10 -22 -35.5 -123t-50.5 -137v-2q0 -22 14.5 -50.5t14.5 -41.5q0 -9 -8 -25q-9 -12 -43 -18t-43 -14q-39 23 -39 82zM182 55q0 27 19 51q22 26 55 33l10 7q9 6 17 6q1 0 3 -1t3 -1 q24 -5 44.5 -31.5t20.5 -59.5v-12q0 -36 -25 -55t-53 -19q-35 0 -64.5 24t-29.5 58z" />
<glyph unicode="@" horiz-adv-x="1495" d="M0 571q0 63 16 185q11 63 11 69q0 47 4 62q3 11 49 164q1 2 7 26t9 32.5t12 24.5t21 25q11 9 22.5 21.5t19.5 21.5t20.5 24t19.5 23q35 39 137 119q14 11 35.5 31.5t39 32t48.5 24.5q1 0 13 4t18 8q35 20 45 25q79 38 86 41q26 10 96 27q34 8 121 38q85 30 141 37 q12 2 33 2q36 0 74 -12q14 -5 42 -16.5t42 -16.5q15 -5 26 -13.5t20 -22t13.5 -22t12 -27t10.5 -23.5q25 -51 55 -84q3 -3 13 -9t14 -12q85 -98 96 -153q2 -8 2 -25q0 -22 -7.5 -72t-9.5 -75v-54q0 -35 3.5 -100t3.5 -92q0 -35 -7 -70q-10 -50 -32 -88q-59 -101 -138 -119 q-21 -6 -45 -6q-26 0 -49 13q-6 4 -17.5 14t-17.5 14q-10 10 -20 15q-26 13 -27 14q-9 9 -22 35q-11 20 -20 56t-13.5 63t-11.5 81.5t-10 71.5q-24 -13 -33 -34t-12.5 -52t-8.5 -45q-4 -10 -20.5 -26.5t-20.5 -26.5q-5 -12 -7 -39t-7 -39q-2 -5 -13 -15t-14 -16 q-24 -41 -73 -75q-96 -65 -232 -84q-30 -5 -41 -5q-25 0 -43 15q-35 28 -39 110q-4 78 -12 103q-3 8 -10 23.5t-11 28.5t-4 26q0 24 33 65q24 31 66 109q8 15 30 38.5t29 32.5q6 8 18.5 26t23 31.5t20.5 24.5q49 53 88 66q41 14 88 14q17 1 53.5 5.5t56.5 4.5q19 0 27 -2 q70 -9 123 -47q33 -25 61 -68t35 -85q4 -28 4 -47q0 -24 -5 -75t-5 -75q0 -55 20 -96q13 6 22 19.5t18.5 37.5t13.5 31q3 6 20 36.5t21 49.5q10 55 10 100q0 88 -27 164q-12 38 -33 72q-8 12 -36 65q-1 2 -6.5 10t-6.5 13q-1 3 -2 10t-2 10q-7 32 -18 54q-20 41 -64 59 q-17 7 -38 28t-29 27q-35 25 -84 25q-42 0 -101 -19q-86 -29 -233 -151q-87 -73 -191 -185q-3 -2 -12 -8.5t-14 -13.5q-2 -3 -19 -26.5t-23.5 -32.5t-21.5 -30.5t-23.5 -36t-19.5 -33.5t-18 -36q-55 -120 -68 -272v-29q0 -89 34.5 -183t88.5 -167q4 -5 14 -11t13 -9 t13 -16.5t19.5 -23t22.5 -16.5q7 -4 15.5 -5t13.5 -5q6 -5 54.5 -15t68.5 -28q1 -1 8.5 0t16 2.5t9.5 1.5q12 2 35 2q22 0 68 -4q93 -12 102 -12q13 0 37 4q9 2 18 6t15.5 7t16.5 9t16 9q12 7 48.5 23.5t53.5 27.5q39 22 41 24q14 10 39 39q22 28 25 37q2 4 2 10t-1 13 t-1 10q0 49 49 49q11 0 32 1t33 1h23q59 -9 78 -22q10 -20 10 -45q0 -31 -25.5 -58t-55.5 -42t-77.5 -37t-69.5 -35q-8 -5 -37.5 -26.5t-45.5 -27.5q-121 -47 -293 -47q-42 0 -62 2q-57 3 -231 56q-10 3 -32 9t-32 9q-8 2 -24.5 7t-24.5 7q-5 1 -15.5 1t-15.5 1 q-17 4 -38.5 25.5t-26.5 24.5q-3 2 -19 18q-7 9 -47 49q-11 10 -42 31t-40 35q-40 56 -53 135q-8 47 -8 108zM633 588q0 -34 31 -53q13 2 25 7t18 8.5t19 13.5t19 14q37 26 51.5 47.5t30.5 70.5q4 11 14 28.5t13 25.5q52 126 96 249q10 30 19 41q12 16 12 23q0 6 -2 11 t-4 7.5t-7.5 5t-8 3.5t-10 3t-9.5 3q-38 12 -63 14q-8 2 -29 2q-15 0 -21 -2t-16 -12.5t-12 -12.5q-2 -1 -9.5 -7l-10 -8t-9 -8t-9 -9t-7.5 -8.5t-7.5 -10t-5.5 -10.5t-4 -12q-1 -4 -2 -12.5t-2 -12.5q-1 -8 -7 -25l-7 -16q-30 -86 -51 -174q-14 -59 -19 -98 q-1 -4 -8.5 -36.5t-7.5 -49.5z" />
<glyph unicode="A" horiz-adv-x="868" d="M-8 94q4 22 27 31.5t52.5 16t41.5 18.5q3 57 30 159t33 134q15 79 45 194q20 71 39 163.5t30.5 160.5t30.5 185t29 175q-5 11 -39.5 13t-36.5 20q12 32 46.5 42t91.5 9h41q43 0 61 2q23 3 68.5 17t66.5 14t37 -8q-3 -18 -15 -31.5t-25.5 -20.5t-27 -19t-18.5 -28 q21 -50 33.5 -109.5t23.5 -139t19 -119.5q5 -24 22 -75.5t21 -76.5q9 -49 13 -139.5t9 -130.5q2 -15 10.5 -43t10.5 -45q4 -29 8.5 -87t12 -101.5t24.5 -81.5q17 -7 27 -7q16 0 46 13.5t56 13.5q-1 -17 -12 -29t-23 -17t-24.5 -15.5t-16.5 -24.5h-14q-40 0 -100 -22.5 t-84 -22.5q-13 0 -19 2q1 26 25.5 50.5t29.5 35.5q-26 71 -34 243.5t-21 233.5q-3 0 -8 1t-8 1q-29 0 -75.5 -12t-74.5 -12q-18 0 -28 2q-29 -24 -40.5 -61t-15.5 -89.5t-10 -77.5q-37 -163 -43 -229q3 -16 16 -16q8 0 29.5 8t30.5 8q17 0 22 -20q6 -9 6 -17q0 -23 -71 -39 q-36 -41 -125 -41q-79 0 -158 31q-6 2 -14 2q-12 0 -33.5 -6t-28.5 -6q-17 0 -22 20zM434 754q0 -17 4 -41q28 -11 62 -11q75 0 133 43q-16 126 -24.5 183.5t-28.5 153.5t-45 163q0 10 -9 10h-2q-15 -28 -20.5 -63.5t-7 -82.5t-4.5 -71q-6 -40 -32 -137.5t-26 -146.5z" />
<glyph unicode="B" horiz-adv-x="763" d="M-10 1341q0 12 5 23.5t18.5 27.5t16.5 19l19 19q17 17 108 20.5t119 11.5q7 2 21 10.5t22 10.5q55 12 103 12h18q50 -5 142 -65q40 -27 82 -109q13 -25 28 -72q8 -25 10 -28q0 -1 2.5 -2t2.5 -2q6 -8 6 -27q-4 -46 -21 -86q-4 -10 -21 -23.5t-22 -19.5 q-89 -117 -123 -152q1 -13 11 -22.5t25 -18.5t20 -14q8 -8 43 -53q10 -13 18 -27t17.5 -35.5t17.5 -36.5q1 -3 11 -10.5t11 -9.5q21 -65 21 -164v-10q0 -42 -4.5 -90t-14 -117t-12.5 -98q-12 -9 -53.5 -46t-75 -58t-78.5 -36q-86 -28 -188 -28q-47 0 -105 6q-3 0 -19 1.5 t-21 2t-19.5 2t-21 2.5t-18.5 3.5t-19.5 5.5t-16.5 7t-16 9v6q0 15 10 23.5t22.5 11t25.5 8.5t18 16q-4 62 -4 90q0 60 7 166t7 152q0 14 -5 27.5t-5 19.5q1 44 10 130.5t10 129.5q0 8 -5 26t-5 29q0 9 5 27.5t5 26.5q-1 13 -5.5 45.5t-4.5 52.5q0 29 10 84t12 78q1 11 6 40 t5 44q0 34 -23 57q-15 -8 -40 -11t-36 -10q-3 -2 -5 -16t-5 -16q-6 -3 -13.5 -2t-14 -1t-5.5 -10q-26 18 -26 43zM297 659q0 -213 45 -499q73 3 121.5 43t70 99.5t25.5 139.5q0 8 1 25t1 25q0 102 -22 189t-56 140q-27 17 -53 17q-53 0 -131 -60q-2 -41 -2 -119zM309 897 q6 -2 21 -2q17 0 32.5 8.5t32.5 28t27 33t29 41.5q63 98 75 120q33 59 33 117q0 91 -65 143q-59 46 -95 46q-2 0 -7 -1t-7 -1h-20q-46 -209 -56 -533z" />
<glyph unicode="C" horiz-adv-x="696" d="M10 795q0 101 41 317q11 70 33 141q26 84 57 137t84 80q28 14 88.5 25.5t118.5 11.5q67 0 96 -14q3 -2 11 -11t12 -12q31 -16 60.5 -43.5t29.5 -56.5q0 -6 -4 -18q-34 11 -72 52t-80 44h-4q-48 0 -82 -21q-38 -23 -89 -128t-62 -177q-2 -10 -2 -32q0 -12 1 -39t1 -39 q0 -10 -6 -31t-6 -31q0 -3 6.5 -17.5t5.5 -25.5q-6 -105 -6 -119q0 -45 6 -98q1 -18 2 -47t2.5 -49.5t5.5 -34.5q6 -24 29 -56.5t24 -51.5q5 -8 22 -47t34 -52q19 -36 29 -53t29.5 -43t41.5 -41.5t51 -24.5q30 6 45 34.5t18.5 64.5t7 71.5t20.5 61.5t50 29q19 -7 25.5 -22.5 t9.5 -46.5t8 -50q1 -4 12 -14.5t11 -18.5t-9.5 -25t-13.5 -30q-3 -10 -5 -34.5t-5 -29.5q-9 -14 -47.5 -44.5t-50.5 -31.5q-129 -12 -156 -12h-28q-49 5 -119 43.5t-88 44.5q-85 133 -119 228q-3 8 -14.5 37t-18 50.5t-10.5 41.5q-2 6 -2 18q0 8 2 25.5t2 25.5q0 13 -2 19 q-1 8 -11.5 26.5t-11.5 26.5q-8 55 -8 117z" />
<glyph unicode="D" d="M29 1331q1 16 12 28t22.5 17t34 11.5t29.5 9.5q130 55 225 55q4 0 12.5 -1t12.5 -1q93 -5 227 -96q51 -35 68 -58t41 -94q3 -9 4.5 -30.5t5.5 -34.5q3 -8 11 -29.5t13.5 -40.5t8.5 -39q2 -12 2 -41q0 -14 -1 -45t-1 -47q0 -25 1 -67t1 -60q0 -41 -2 -66q0 -1 -6 -8 t-5 -14v-10q0 -20 -12 -86q-57 -287 -162 -402q-19 -22 -55.5 -52.5t-42.5 -35.5q-3 -3 -11 -6t-20.5 -6.5t-21.5 -7.5q-88 -39 -141 -43q-4 0 -18 -1t-23 -1q-76 0 -111 12q-2 1 -11 10.5t-12 11.5t-18.5 7t-27 11.5t-11.5 14.5q0 2 4 10q2 31 21 32q10 0 33 -12.5 t32 -12.5q8 0 10 4q21 47 21 100q0 23 -4 78t-4 84q0 40 6 121t6 121q0 33 -2 49q-2 20 -2 61q0 16 1 51.5t1 55.5q0 18 -5 50t-5 48q0 34 9 94.5t11 83.5v43q0 -3 -8 3q-7 5 -2 9q10 10 10 127v58q-8 6 -24 6t-49.5 -18.5t-51.5 -18.5q-15 0 -26 8zM358 201q0 -32 7 -51h16 q32 0 70.5 20t54.5 23v4q0 37 31 92.5t34 66.5q3 8 4.5 23.5t3.5 38.5t3 35q3 21 12 239q1 32 10.5 94t9.5 93q0 19 -5 58t-5 58q0 7 5 14t5 9q0 4 -5 14t-5 19q-4 162 -43 227q-16 27 -57 53.5t-76 26.5q-37 0 -51 -37q-8 -57 -8 -137q0 -53 3 -115t8 -139t7 -119v-31 q0 -39 -5 -114.5t-5 -114.5q0 -27 5 -77.5t5 -74.5v-12q-1 -34 -15 -95.5t-14 -90.5z" />
<glyph unicode="E" d="M51 1378q165 51 359 64q27 2 86.5 10t89.5 8q54 0 94 -18q15 -19 27 -58t11 -75q0 -45 -16 -62h-12q-30 0 -47 18t-22.5 41.5t-15 51t-23.5 41.5q-20 -10 -76 -10h-60q-69 0 -92 -23q6 -65 6 -125q0 -63 -8 -193t-8 -202v-43q21 -12 47 -12q31 0 105 22q15 6 21.5 43 t21.5 43q1 0 3 1t3 1q13 0 23 -5.5t16 -20t8.5 -21t7 -28.5t4.5 -23q10 -44 10 -123q0 -3 1 -9t1 -9q-4 -2 -28 -21.5t-39 -19.5q-10 0 -21 8q-24 0 -24 16q0 7 7 26t7 27v7q-82 14 -131 14q-17 0 -33 -4q-22 -105 -22 -254q0 -38 12 -320h39q23 0 67 -2t64 -2q97 0 133 58 q12 0 17 10t4.5 22.5t4.5 22.5t17 10q43 0 42 -47q0 -15 -4 -45t-5 -39q-13 -1 -35.5 -24.5t-40.5 -28.5q-36 -10 -125 -10q-29 0 -88.5 1t-85.5 1q-57 0 -80 -2q-18 -3 -43 -3q-10 0 -28.5 1.5t-26.5 1.5h-4q-4 0 -16 -1.5t-17 -1.5q-39 0 -39 25q0 19 12.5 27t39 11 t34.5 5q-12 77 -12 154q0 85 19.5 263t19.5 273q0 35 -4 101q-13 136 -13 243t13 181q-6 2 -21 2t-45 -7.5t-43 -7.5q-35 0 -43 45z" />
<glyph unicode="F" horiz-adv-x="653" d="M25 127q3 29 24 29q5 0 16.5 -2t16.5 -2q10 0 18 8q0 5 1 16.5t1 16.5q0 18 -1 51t-1 49v41q1 17 12 51t11 51q0 9 -6 29t-6 29q0 25 10.5 77t11.5 76q0 10 1 30t1 30q0 27 -1 79.5t-1 77.5v56q2 31 12.5 96t10.5 102q0 26 -7.5 77t-7.5 75q0 51 25 94q-12 12 -33 12 q-11 0 -30 -4t-27 -4q-22 0 -29 16q1 17 14 26.5t28 11.5t40.5 4t36.5 4q161 29 358 32q9 0 20 4t15 4q8 0 19 -8q33 -37 45 -108q6 -40 6 -88q0 -118 -39 -152q-23 32 -23 90q0 16 2 48t2 48q0 62 -26 97q-20 10 -47 10q-16 0 -50 -5t-53 -5h-12q-21 -49 -27 -107t-6 -151 v-54v-47q0 -25 -1 -74.5t-1 -72.5q0 -55 2 -80q18 -16 60 -16q8 0 25 1t26 1q24 0 51 -9q11 -3 17.5 -5.5t13 -10t2.5 -16.5q-13 -29 -43 -29q-16 0 -58 15.5t-67 15.5q-2 0 -8.5 -1t-8.5 -1q-22 -5 -22 -33q0 -4 1 -12.5t1 -12.5q0 -12 -6 -41.5t-6 -46.5q0 -13 6 -42 t6 -46t-11 -50.5t-12 -51.5v-23v-63v-23q-2 -36 -12 -89t-10 -68v-17q8 -23 26 -34t44.5 -18t37.5 -13q-15 -27 -28 -35t-39 -8h-19q-15 1 -45 20.5t-41 22.5q-17 4 -59.5 6t-60.5 6q-6 1 -21 3t-23 4t-19 6t-16.5 11.5t-6.5 18.5zM197 1268q0 -21 12 -23q12 8 12 41 q0 21 -12 23q-12 -8 -12 -41z" />
<glyph unicode="G" horiz-adv-x="813" d="M14 453v14q0 25 10.5 72.5t12.5 66.5q3 42 6 175.5t14 203.5q2 12 11 38.5t12 37.5q4 18 5.5 46t4.5 40q1 3 12 17t11 16q3 13 11 51t12.5 55.5t12.5 47t17.5 52.5t21.5 44q51 88 109 131q116 -11 227 -56q5 -2 23.5 -8t28 -10.5t21 -17t15.5 -29.5h-10q-24 0 -69 24.5 t-78 24.5q-25 0 -39 -4q-30 -8 -54 -45q-4 -6 -6 -20t-6 -23q-1 -2 -10.5 -11t-9.5 -10q-6 -27 -6 -63q0 -23 3 -81t3 -89v-27q-4 -125 -11 -207q-3 -35 -16 -104t-16 -103q-4 -58 -4 -84q0 -30 2 -88t2 -88v-32q0 -19 -3 -47.5t-3 -43.5q0 -23 6 -61l10 -65 q10 -23 34 -44.5t51 -39.5t34 -25q18 5 46.5 28t51.5 27q-4 148 -4 230q0 98 4 149q-12 10 -35 10q-12 0 -35.5 -3t-33.5 -3q-17 0 -26.5 8t-10.5 31q31 13 115 17t102 6q20 2 59 11t49 11q7 1 27 9t29 8q14 0 20 -17q0 -2 1 -7t1 -7q0 -21 -14.5 -31.5t-33 -13t-37.5 -9.5 t-25 -20q6 -46 6 -88q0 -168 -92 -280q-14 -18 -25 -27.5t-36.5 -25t-37.5 -23.5q-11 -7 -28.5 -24t-24.5 -19q-41 -13 -72 -13q-27 0 -57.5 8.5t-50 17.5t-53.5 27t-50 25q-6 20 -36.5 57t-38.5 62q-6 19 -11 77.5t-12 84.5q-4 14 -18 40t-15 36z" />
<glyph unicode="H" horiz-adv-x="880" d="M-4 59q4 35 27.5 53.5t66 33t57.5 22.5q-2 4 -2 14q0 8 7.5 25t7.5 26q0 14 -11.5 34t-11.5 32q0 2 5 34.5t5 51.5q0 16 1.5 46.5t1.5 45.5q0 50 -2.5 149t-2.5 148q0 82 2 121q0 3 -5 14t-5 19q2 43 19.5 198.5t17.5 247.5q0 28 -4 86q-10 10 -29 10q-6 0 -16.5 -2 t-15.5 -2q-25 0 -25 37q133 12 303 53q10 -15 10 -28t-14.5 -33t-17.5 -35q-19 -324 -21 -575q24 -4 41 -4q35 0 119.5 12t126.5 12h6q12 73 12 201q0 39 -2 120t-2 120q0 54 2 81q-10 11 -56 12.5t-52 20.5q35 72 159 72q55 0 107 -16.5t82 -45.5q-3 -24 -31 -24 q-13 0 -40.5 7t-35.5 7h-2q-22 -19 -22 -49q0 -11 5 -35t5 -37v-20q0 -63 -5 -194t-5 -197q0 -30 3 -91.5t3 -93.5q0 -45 -6 -98q-2 -13 -12 -37.5t-11 -38.5q-1 -9 5.5 -26t6.5 -27q0 -6 -6 -25t-6 -30q0 -10 6.5 -27.5t5.5 -25.5q-1 -15 -11.5 -45t-10.5 -41 q0 -15 12.5 -45.5t12.5 -47.5q0 -3 -1.5 -10.5t-1.5 -11.5q0 -17 25 -17h14q23 0 25 -10q-8 -28 -49 -46.5t-80 -18.5q-16 0 -44.5 10t-41.5 10v6q0 21 25 34.5t28 25.5q-2 25 -2 75q0 65 6 191.5t6 187.5q0 103 -10 174q-137 -21 -293 -63q0 -27 -22 -33q8 -47 8 -106 q0 -49 -8 -155t-8 -159q0 -90 20 -166q24 -4 29 -4q23 0 52.5 18.5t53.5 18.5h17q-4 -24 -21.5 -40t-42 -30.5t-35.5 -27.5q-12 2 -42 6.5t-47 7t-43.5 4.5t-49.5 2q-36 0 -88 -10q-16 -4 -50 -22.5t-52 -18.5q-16 0 -29 8zM279 961q0 -9 6 -9q3 0 16 9q0 8 -12 8 q-7 0 -10 -8z" />
<glyph unicode="I" horiz-adv-x="641" d="M33 43q7 24 32 37t55.5 24.5t43.5 26.5q10 54 10 131v62v61q0 15 -5 45t-5 45q0 22 9 59.5t11 51.5q6 52 6 104q0 3 -6 168v12q0 40 11.5 126.5t11.5 131.5q0 9 -5 32t-5 32v29q0 112 22 204q1 6 -0.5 16t-1.5 13q0 13 -31 21h-20h-14q-34 0 -48 14q-16 17 -4 29 q4 4 11.5 5.5t14 0.5t13.5 0q12 2 39 2q20 0 63 -3t64 -3q10 0 37 -6.5t37 -6.5h2q12 0 24.5 2.5t28.5 7.5t25 7q24 6 28 6q1 0 3.5 -1t3.5 -1q3 -1 15 -1.5t15 -2.5q11 -8 -5 -24.5t-27 -18.5q-8 -2 -29 -1.5t-29 -2.5q-3 -1 -8.5 -5t-11.5 -6.5t-13 -1.5q-1 -28 -4 -84.5 t-4 -85.5q-4 -70 -4 -104q0 -32 4 -94q1 -8 3 -26t3 -26q2 -18 2 -55q0 -8 1 -26.5t1 -26.5q0 -11 -4 -35q0 -3 -1 -9t-1 -9q0 -11 2 -34t2 -34v-55q-2 -96 -9.5 -287.5t-10.5 -288.5q16 2 49 2q84 0 135 -22q6 -3 19 -5t19.5 -5.5t6.5 -12.5q0 -6 -2 -10q-3 -8 -51 -8 q-5 0 -14.5 -1t-14.5 -1q-10 0 -31.5 1t-31.5 1q-16 0 -44 -4.5t-40 -5.5q-26 -4 -39 0q-15 6 -25 2q-6 -2 -17 -8.5t-17 -8.5q-25 -9 -152 -43q-7 -2 -31 -12t-37 -10q-17 0 -30 10z" />
<glyph unicode="J" horiz-adv-x="966" d="M45 326v6q17 -4 26 -15.5t15.5 -32t11.5 -28.5q2 -3 21 -32.5t24 -45.5q17 -4 41.5 -11t47.5 -12.5t53 -9.5q1 0 16 -6t27 -4q56 9 100.5 79.5t50.5 150.5v18q0 31 -10 103t-12 106q-13 305 -13 465q0 106 2 155q1 16 7 46.5t6 44.5q0 19 -13 38q-18 13 -63 13h-61 q-77 0 -82 43q29 4 88 4q15 0 48 -1t50 -1q69 0 129 8q30 4 128.5 28.5t166.5 26.5q2 0 12 -2t13.5 -3t9.5 -4t7.5 -9t0.5 -14q0 -2 1 -6.5t1 -6.5q0 -18 -18 -18q-8 0 -22 4t-17 4q-19 0 -65.5 -5.5t-63.5 -15.5q-58 -36 -58 -186q0 -59 2 -86q0 -6 1 -19.5t1 -19.5 q0 -39 -6 -113t-6 -110q0 -17 4.5 -46t5.5 -40q6 -70 7.5 -193.5t3.5 -164.5q1 -18 7.5 -50.5t6.5 -48.5t-2 -22q-6 -30 -28 -56t-47 -52.5t-34 -53.5q-12 -5 -51 -24t-73 -30.5t-62 -11.5q-43 0 -76 33q-20 0 -38.5 2t-37.5 7.5t-31 9t-31 13t-26 13.5l-28 16t-25 15 q-4 14 -17 45.5t-19.5 57t-6.5 55.5z" />
<glyph unicode="K" horiz-adv-x="1052" d="M59 154q5 18 38 29t38 14q4 114 4 178q0 154 -13 474t-13 458q0 22 1 64t1 61q0 12 -8.5 19t-19.5 9.5t-19.5 9.5t-8.5 19v12q16 45 82 45q8 0 24.5 -1t24.5 -1q13 -1 61.5 -20t82.5 -19q20 0 41 7v-5q0 -23 -15.5 -49.5t-17.5 -32.5q-1 -48 -4.5 -139.5t-3.5 -136.5 q0 -72 8 -137q19 6 30.5 21.5t21.5 42t14 34.5q5 9 16 26.5t16 26.5q3 6 10.5 27t12.5 29q4 8 21.5 22t21.5 21q13 21 36.5 73t39.5 78q-3 11 -16 17t-26 7.5t-23.5 9.5t-10.5 23v9q50 32 131 33q54 0 96 -23q-76 -198 -174 -369q-3 -6 -8 -17.5t-10 -20.5t-13 -17 q-5 -5 -12.5 -19t-17.5 -35.5t-15 -31.5q-2 -4 -9.5 -15t-11.5 -17.5t-7.5 -17.5t-3.5 -20v-6q14 -13 49.5 -28.5t48.5 -26.5q13 -23 47.5 -72.5t50.5 -79.5q17 -34 53 -131q2 -4 6 -19.5t7 -23.5q3 -9 16 -18.5t16 -14.5q5 -8 7.5 -24t3.5 -19q4 -10 35.5 -111.5 t62.5 -150.5q18 -8 72 -8h10q60 0 80 -12q0 -41 -14 -54t-50 -22q-16 -4 -24 -4q-18 0 -52 7t-47 7h-8q-35 -4 -88.5 -32.5t-77.5 -28.5q-15 0 -30 6v12q0 23 26.5 42t60 38t44.5 39q-16 36 -36.5 127t-39.5 135q-14 33 -60.5 97.5t-60.5 87.5q-18 31 -30 48.5t-35.5 45 t-53.5 42t-65 15.5q-21 -18 -21 -43q0 -11 5.5 -36t5.5 -40v-18q0 -20 -1.5 -64.5t-1.5 -68.5q0 -12 1.5 -33t1.5 -33q0 -10 0.5 -60t2 -69.5t8.5 -50.5t21 -49q4 -4 20.5 -12t16.5 -17q0 -8 -4 -14q-7 -11 -17 -15t-30 -5t-29 -3q-72 -14 -127 -14q-15 0 -69 4h-23h-12 q-48 0 -64 23z" />
<glyph unicode="L" horiz-adv-x="798" d="M33 1343q3 25 37 25q8 0 26 -1t23 -1h2q7 0 38 0.5t42 1t38 2t42 3.5t35.5 5.5t36 8.5t28.5 12q6 -2 15 -12t18 -11v-8q0 -29 -19.5 -38t-56.5 -9h-10v-90v-199q0 -152 10 -254q2 -14 22.5 -134.5t20.5 -194.5q0 -36 -9.5 -99t-9.5 -94q0 -32 9 -66q168 -20 250 -32 q30 5 43 33t21 66t22 54h2q49 0 49 -55q0 -29 -13 -65t-26 -54q-1 -2 -11.5 -5t-11.5 -5q-6 -13 -10 -17.5t-8 -5.5t-17.5 -3t-29.5 -7q-11 -3 -25 -12.5t-18 -9.5q-21 0 -66.5 26.5t-75.5 28.5h-6q-17 0 -41.5 -10.5t-38.5 -12.5q-64 -12 -133 -12q-64 0 -116 12q-1 3 -2 7 t-2 6.5t-1 5.5q0 19 22.5 32t25.5 25q-27 197 -27 551q0 95 2 288.5t2 287.5q0 15 -13 20t-29.5 4t-33.5 1t-22 11zM283 723h2q10 0 10 8v4h-2q-10 0 -10 -8v-4z" />
<glyph unicode="M" horiz-adv-x="1187" d="M0 168q4 25 25 36t56.5 17t49.5 12q2 61 2 193q0 195 -14 524q-1 15 -7 95t-6 122q0 7 1.5 22.5t1.5 22.5q1 19 8.5 69.5t7.5 76.5q0 25 -6 49q-3 16 -23 16q-7 0 -23.5 -2t-23.5 -2q-26 0 -26 33q43 0 112 11.5t96 11.5q19 0 29 -2q12 -1 39.5 -13t38.5 -20 q18 -13 37 -49t40.5 -88t30.5 -70q2 -4 11 -11.5t10 -9.5q13 -34 23 -93.5t23.5 -105.5t41.5 -73q12 5 19.5 16t10.5 20.5t7 26.5t6 25q11 32 53 205q2 6 9 45t14 53q1 2 11 5t11 5q1 3 -0.5 12.5t0.5 10.5q24 30 73 62t79 36h4q6 0 30 -4.5t42 -5.5q23 -2 65 -2h29 q55 0 90 -8t55 -35q-5 -16 -24 -16q-12 0 -44 8t-46 8h-5q-26 -88 -26 -221q0 -45 3 -143t3 -148q0 -63 -2 -96q-1 -11 -5.5 -33.5t-4.5 -34.5q0 -15 5 -43t5 -43q0 -26 -15 -68t-18 -61q-1 -8 1.5 -15t5.5 -12t3 -6q0 -31 -15 -117t-15 -133q0 -44 10 -75q4 0 14 -1t15 -1 q14 0 42 1t42 1q51 0 71 -11q-13 -33 -40 -46t-72 -13q-22 0 -72 4h-23q-22 0 -68 -3t-69 -3q-70 0 -102 29q2 22 22 22q7 0 24.5 -4t24.5 -4q11 0 17 6q5 72 10 213t10 211q1 16 7 52.5t6 56.5v12q-1 29 -16 101t-17 116q-2 31 -2 94q0 129 12 264q-14 -1 -25.5 -9 t-14.5 -13t-13 -21q-8 -12 -14.5 -36t-8.5 -29q-7 -16 -31.5 -55.5t-33.5 -63.5q-10 -25 -25 -89t-35 -104t-59 -59q-29 13 -50 43t-31 61t-26 68t-34 58q-49 108 -88 272q-37 -71 -54 -305q-6 -74 -6 -148q0 -85 8.5 -253t8.5 -253v-63q1 -20 16.5 -30t33.5 -12.5t33 -13 t15 -30.5v-2h-6q-47 0 -139.5 -22.5t-131.5 -22.5q-67 0 -104 45zM150 1163q0 -23 14 -26q0 5 6 24t6 29q0 17 -12 22q-14 -14 -14 -49z" />
<glyph unicode="N" horiz-adv-x="1052" d="M-6 1378q2 15 9.5 24.5t22.5 15.5t26 8t33 4.5t30 3.5q27 32 112 32h27q2 -7 16 -12.5t17 -9.5q4 -4 6 -16t6 -17t21 -19.5t22 -23.5q3 -4 0.5 -20.5t-0.5 -22.5q2 -8 19 -40.5t24 -47.5q2 -3 4.5 -14t5.5 -17q4 -7 26 -35t30 -43q3 -6 5 -26t5 -27q2 -7 11.5 -18.5 t10.5 -14.5q4 -9 13.5 -35t17.5 -40q1 -2 11.5 -5.5t11.5 -5.5q4 -10 17.5 -35t23.5 -49t14 -47q12 -12 37.5 -53t48.5 -55q16 71 16 174q0 63 -9 201t-9 208q0 45 2 68q-4 15 -22 21t-37 6t-34.5 8t-15.5 27v4q42 18 103 18q25 0 55 -3t67 -8t58 -7q3 0 9 -1t9 -1 q12 0 36 2t36 2q47 0 72 -25q-10 -31 -45 -31q-15 0 -51.5 7.5t-55.5 7.5q-13 0 -33 -4q-24 -44 -24 -109q0 -29 6.5 -85t7.5 -79q4 -75 5 -219.5t5 -214.5v-20q0 -29 -6 -85t-6 -81q0 -21 2 -31q4 -25 27 -77.5t26 -61.5q1 -4 5.5 -20t7.5 -25q4 -11 15.5 -35t18.5 -44.5 t7 -37.5q0 -33 -31 -55q-1 0 -4 -1t-4 -1q-16 0 -20.5 10t-4.5 31v24q-12 7 -22 31l-11 24q-7 13 -22.5 35t-20.5 31q-8 14 -17.5 40t-14.5 36q-5 11 -21.5 45t-28.5 55.5t-26 40.5q-16 22 -54 60t-55 59q-2 2 -4.5 16t-5.5 17t-16 5t-17 5q-6 5 -12 13.5t-16 26t-15 25.5 q-4 6 -11 21.5t-11 21.5q-8 11 -33.5 32t-32.5 34q-5 7 -10 31.5t-10 33.5q-10 18 -35.5 69.5t-42.5 82.5q-23 -101 -23 -203q0 -67 11 -181.5t12 -158.5q0 -3 1 -10t1 -10q0 -15 -1 -43t-1 -41v-37q1 -16 6.5 -56t5.5 -63q23 -21 81 -53.5t81 -54.5q-14 -31 -42 -41.5 t-73 -10.5h-47q-23 0 -55 -4q-30 -5 -93 -32t-91 -27q-27 0 -43 16v6q0 20 16 29.5t35 17.5t24 23q9 396 13 500q0 9 -6.5 21t-6.5 22q0 15 6.5 43.5t6.5 40.5q0 28 -10.5 74.5t-12.5 68.5q-2 33 -2 103q0 42 2 132.5t2 139.5q0 61 -2 92q-5 12 -20 12q-9 0 -30.5 -7 t-29.5 -7q-12 0 -18 12zM731 1288q0 -18 10 -18q7 0 7 16q0 19 -7 19q-5 0 -10 -13v-4z" />
<glyph unicode="O" horiz-adv-x="831" d="M57 575q0 112 9 232q7 96 43 240q23 92 65 184q19 47 23 53q13 17 44.5 38.5t41.5 37.5q10 -2 32 -2q27 0 70 11.5t49 12.5h2q5 0 8 -5l2 -5q12 1 33.5 4.5t34.5 3.5q22 0 41 -8q86 -36 172 -315q4 -15 17 -47t16 -49q5 -22 7 -61t3 -48q8 -98 8 -137q0 -100 -18 -211 q-3 -20 -6.5 -53.5t-7 -58.5t-7.5 -40q-3 -10 -21 -30.5t-24 -34.5q-4 -9 -14 -37t-18 -39q-4 -6 -21.5 -21.5t-22.5 -21.5q-2 -3 -10.5 -12.5t-11 -12.5t-10 -10.5t-11.5 -11t-11.5 -9.5t-15 -10.5t-16.5 -9.5q-41 -20 -94 -20q-45 0 -106 16.5t-92 28.5t-99 41 q-84 135 -84 417zM248 391q0 -43 2 -61q5 -34 22.5 -91t20.5 -71q14 -2 59.5 -16.5t71.5 -14.5q24 0 43 8q12 5 20.5 17t22.5 39q21 35 33 65q4 12 6 42t6 44q1 3 9.5 15.5t10.5 17.5q1 2 11 43q8 46 12 98t6 130t4 108q4 94 4 145q0 43 -4 105q-6 69 -23 137.5t-51.5 123 t-76.5 54.5q-29 0 -56 -22q-50 -48 -86 -162q-1 -2 -11 -11t-11 -12q-2 -7 -0.5 -27.5t0.5 -27.5q-1 -6 -10.5 -21t-10.5 -22q-3 -20 -6 -58.5t-4 -50.5q-14 -115 -14 -225q0 -80 2 -121q0 -5 1 -16t1 -16q0 -25 -2 -74t-2 -72z" />
<glyph unicode="P" horiz-adv-x="739" d="M0 238q-1 13 5.5 17.5t19.5 4.5q7 0 24.5 -1t24.5 -1h14q37 175 37 428q0 108 -6 213q-10 215 -10 252q0 15 6 43t6 43q0 27 -13.5 102t-13.5 121q0 22 4 58q-3 16 -16 16q-8 0 -28 -8t-31 -8q-15 0 -23 10q3 11 13 20t19 13t28.5 11.5t27.5 10.5q120 55 274 55 q34 0 50 -2q91 -7 131 -32q2 -1 5 -10.5t5 -10.5q13 -6 42.5 -27t45.5 -28q41 -103 41 -279q0 -64 -8 -166q0 -4 -6.5 -14t-15 -23t-11.5 -18q-15 -24 -109 -129q-31 -4 -83.5 -30.5t-94.5 -26.5q-18 0 -28 2q-2 -20 -2 -66q0 -74 12 -270t12 -293v-20q3 -23 45 -29t51 -14 q-3 -33 -34 -33q-10 0 -32 5t-30 5q-122 5 -217 53q-5 2 -13 12t-9 11q-12 4 -54 9t-55 24zM205 1384q0 -41 12 -51q14 17 14 68q0 40 -14 51q-12 -15 -12 -68zM291 1444q0 -16 1 -50t1 -51q1 -29 6.5 -83t5.5 -72q0 -20 -3 -63t-3 -66q0 -97 27 -160q8 1 62 5t79 16 q2 1 5 11t5 11q5 4 17 5t16 5q10 9 19.5 20.5t14 18.5t12.5 21t9 16q29 48 33 78q4 50 4 76q0 87 -16.5 179t-42.5 157q-84 59 -185 59q-26 0 -53 -6q-14 -57 -14 -127z" />
<glyph unicode="Q" horiz-adv-x="829" d="M20 655q0 59 5 95q2 24 15.5 80t16.5 71q28 153 43 205q5 17 16.5 52t16.5 56q11 40 25 66.5t41 65.5q22 30 29.5 40t25.5 28t38 26t48 14q35 8 109 8h98q43 0 63 2q5 -16 33 -27.5t33 -15.5q43 -84 43 -313v-107v-45q0 -34 -4 -65.5t-10 -69t-9 -61.5q-3 -22 -4.5 -82.5 t-5.5 -91.5q-9 -82 -22 -152q-4 -20 -18.5 -60t-14.5 -55q0 -16 6 -28t20 -27.5t19 -23.5q6 -8 20.5 -32t22.5 -34q5 -7 30.5 -35t35.5 -48t10 -46v-12q-11 -8 -25 -8q-6 0 -19 2t-20 2q-14 0 -22 -6q-16 2 -25.5 12t-18 28.5t-12.5 24.5q-32 5 -55 18t-56.5 43t-39.5 35 q-18 -6 -52.5 -26.5t-56.5 -26.5q-5 23 -35 23q-5 0 -16 -1t-16 -1h-9q-167 28 -227 98q-1 1 -11.5 10t-19.5 18t-12 15q-3 7 -5 26t-3.5 48t-3.5 47q-15 161 -15 241zM229 539q0 -3 1 -9.5t1 -9.5q4 -42 27.5 -112.5t26.5 -81.5q29 -23 75 -43q6 -3 18 -10.5t20.5 -11 t15.5 -3.5q11 0 22 14q8 11 8 21q0 16 -28.5 38.5t-32.5 37.5q-2 29 -28.5 68t-26.5 75v8q14 23 55 23q27 0 53 -11q7 -6 25 -38t41 -37q22 26 34 70t14 70t5 87q4 74 22.5 256t18.5 279q0 43 -8 137q-13 6 -42 30t-54 25h-3q-16 0 -52.5 -21.5t-59.5 -21.5h-6 q-43 -60 -73.5 -161t-45.5 -208q-8 -55 -8 -170v-75q0 -68 -2 -103q-1 -17 -7 -54t-6 -58zM240 1307q0 -12 12 -15q3 8 11 21.5t11 21.5q-2 2 -8 2q-10 0 -18 -10t-8 -20z" />
<glyph unicode="R" horiz-adv-x="837" d="M8 1337q2 13 11 26t17.5 20.5t25.5 21.5t22 18t20 17.5t23 20.5t21 15.5t24 12.5q11 5 56 8.5t63 24.5q51 -12 134.5 -45.5t104.5 -40.5q41 -54 41 -148q0 -72 -25.5 -150.5t-60.5 -136.5q3 -20 41.5 -23.5t46.5 -8.5q1 0 1.5 -3.5t1.5 -7t2 -4.5q2 -4 10 -12 q4 -4 13 -11t13 -11q15 -15 29 -52q4 -13 10 -27t13.5 -30.5t11.5 -26.5q27 -62 27 -118q0 -42 4 -62q2 -10 2 -63v-45v-17v-45q-1 -3 -5.5 -17.5t-3.5 -21.5q1 -5 4.5 -16.5t4.5 -16.5q10 -54 26 -96q20 -55 62 -110q5 -6 15 -19.5t15 -19.5q1 -2 4.5 -5.5t5 -6.5t1.5 -7 q0 -18 -49 -26q-37 -6 -76 -6h-21q-49 5 -59 24q-8 19 -8 45v25v47q0 115 -2 172q-8 186 -23 264q-10 65 -31 107q-6 13 -28 43l-9 10q-9 10 -16.5 17.5t-9.5 6.5q-12 -4 -16 -4q-10 0 -30 7.5t-28 7.5h-2q-11 -1 -22.5 -9t-20.5 -12q-6 -2 -53 -14t-66 -29q-4 -28 -4 -43 q0 -28 7.5 -74.5t7.5 -66.5q0 -15 -5 -41t-6 -37q0 -3 -1 -10t-1 -10q0 -11 2 -34.5t2 -35.5t-1 -35t-1 -35q0 -33 4 -47q3 -18 4 -50t3 -46q1 -5 6.5 -22t5.5 -27q0 -11 -2 -17q20 -8 79 -23.5t85 -29.5q-3 -35 -31 -35q-14 0 -46.5 12t-43.5 13q-29 2 -56 2h-26 q-11 0 -21 -1l-57 3q-39 4 -57 16h-4q-13 0 -32 -6t-32 -6q-12 0 -18 2q0 2 -1 6t-1 6q0 21 21 40t24 34q-4 184 -4 289q0 373 26 895q-5 8 -14 8t-26 -20.5t-27 -20.5q-14 0 -21 10zM258 850q77 13 138 123t61 231q0 33 -2 47q-3 22 -20 65.5t-25 53.5q-4 4 -16.5 17 t-17 17.5t-15.5 13.5t-18.5 12.5t-18 6.5t-21.5 3q-21 0 -33 -4q0 -74 -6 -244t-6 -260v-82z" />
<glyph unicode="S" horiz-adv-x="763" d="M27 1165q0 53 4 82q6 59 10 76q1 3 11 12t11 11q23 77 58 121.5t104 72.5q19 8 37 8t51 -8q47 -10 78 -29.5t64 -56.5q5 -6 15.5 -16.5l17 -17t11.5 -16t5 -18.5t-6 -18q-9 -6 -19 -6q-21 0 -49 37.5t-41 44.5q-16 -8 -37 -8h-24q-11 0 -27 -4q-12 -3 -30 -18t-33 -15 q-23 -56 -23 -142q0 -28 3 -84t3 -81q0 -42 -6 -72q2 0 6 -1t6 -1q20 0 41.5 18t38 39.5t41.5 41t51 22.5q1 0 3.5 1t3.5 1q34 0 92 -35q46 -25 118 -86q95 -335 109 -553v-27q0 -18 -1 -53t-1 -51q0 -29 2 -43q-14 -19 -53 -86q-40 -62 -78 -98q-7 -7 -50 -21t-59 -33 q-24 4 -36 4q-23 0 -72 -8t-72 -8h-14q-27 2 -78.5 15.5t-73.5 29.5q-73 54 -73 162q0 40 8 76q2 9 4 28t4.5 28t11 18.5t23.5 13.5h16q16 0 28 -5t24.5 -15t19.5 -13v-19q0 -30 -16.5 -71t-16.5 -62q0 -18 10 -45q36 -47 107 -47q86 0 219 70q27 49 27 102q0 36 -5 72 q-1 12 -3 35t-4 41.5t-5 31.5q-3 17 -16.5 49t-16.5 48q-6 31 -11.5 91t-8.5 83q-7 50 -16 157t-17 168h-14q-33 0 -60.5 -15t-44 -34.5t-40.5 -40t-48 -28.5q-30 -11 -84 -11h-22q-7 0 -22 -1t-23 -1q-47 63 -47 211zM176 1438q0 -2 2 -2q4 0 4 8q-6 -3 -6 -6zM182 1444 q6 3 6 4q0 2 -2 2q-4 0 -4 -6z" />
<glyph unicode="T" horiz-adv-x="770" d="M-10 1384q0 44 8 68q37 34 86.5 45.5t118.5 11.5q18 0 55 -1t57 -1q53 0 105 6q22 3 69.5 20t71.5 19h12q18 0 50 -6.5t36 -7.5q8 -2 27 -2h6q39 0 53 -23q0 -51 -26 -120t-27 -117q-32 4 -44 36.5t-17 81.5t-15 70h-14q-31 0 -75.5 -18.5t-51.5 -20.5q-35 -200 -35 -510 q0 -150 12 -421t13 -361q10 -20 39.5 -25.5t59.5 -11.5t40 -26q-3 -39 -80 -39q-50 0 -82 14q-7 4 -29 17.5t-36 19.5q-31 14 -94 21t-90 18v12q0 14 8.5 21.5t19 9.5t19 9.5t8.5 21.5q4 102 5.5 300t4.5 291q2 59 13.5 230t11.5 274q0 80 -2 123q-39 17 -99 17 q-59 0 -98 -17q-20 -6 -25.5 -34.5t-6.5 -64.5t-11 -50q-51 17 -51 120zM338 1401q0 -5 15 13q5 7 3 7q-4 0 -12 -8zM389 1163l2 -2q23 0 23 53q0 24 -4.5 47t-10.5 27q-10 -15 -10 -39q0 -10 3 -31t3 -30q0 -13 -6 -25z" />
<glyph unicode="U" d="M20 1360q0 23 3 47q58 20 120 20h27q1 -56 5.5 -276t4.5 -344q0 -19 -5 -60t-5 -61v-10q1 -14 8.5 -43.5t9.5 -44.5q4 -30 7 -80t5.5 -78t16.5 -58.5t41 -47.5q6 -5 16.5 -16t20.5 -19.5t20 -14.5q22 3 42.5 13t42.5 29.5t34.5 31.5t37 40t30.5 34q10 10 31.5 53t25.5 64 q4 24 4 39q0 14 -2 44.5t-2 47.5v16q0 14 1 46t1 50q0 184 -31 293q-1 3 -9.5 16t-8.5 15q-2 7 0 23.5t0 23.5q-1 4 -9.5 14.5t-10.5 16.5q-3 10 -16 64t-23 73q-3 5 -14 15t-18 21t-7 25v7q17 12 39 20t59.5 17t46.5 12q39 -8 39 -58q0 -16 -4 -54t-4 -58v-17 q2 -19 28 -137q3 -11 10.5 -33.5t10.5 -33.5q6 -23 12.5 -55.5t14 -78.5t12.5 -71q3 -16 15 -60t14 -67q10 -93 10 -217v-105q0 -112 10 -186q-16 -25 -46 -48.5t-56 -23.5q-5 0 -17 4q-22 0 -22 23q0 5 2 17t2 16q0 89 -31 188q-9 6 -14 6q-8 0 -14 -8.5t-11 -20.5t-8 -16 q-8 -10 -25 -25.5t-24 -23.5q-2 -3 -13.5 -17t-17 -20t-17.5 -19t-20.5 -19.5t-20.5 -14.5t-24 -12t-24 -5q-1 0 -3.5 -1t-3.5 -1q-13 0 -44.5 5t-47.5 6q-5 0 -21 -3.5t-26 -3.5q-12 0 -30 7q-26 13 -52 57t-45 61q-23 220 -30 586v10q0 33 5 111.5t5 122.5v39q-1 24 -7 84 t-6 92z" />
<glyph unicode="V" horiz-adv-x="866" d="M25 1399q0 13 11 17t30 3.5t26 1.5q156 37 266 37q26 0 58 -4q-4 -20 -14.5 -76.5t-15.5 -87.5t-10 -79.5t-5 -90.5q0 -39 2 -57q7 -86 55 -358q28 7 44 32t29.5 69t22.5 62q4 7 17 21t16 22q3 9 6 32.5t6 33.5q3 9 24.5 72.5t29.5 99.5q5 23 22.5 109.5t32.5 130.5 q21 3 76.5 23t87.5 20q26 0 51 -11v-6q0 -26 -19 -37t-48 -16.5t-40 -15.5q-13 -21 -20 -63.5t-12 -55.5q-3 -8 -16.5 -22.5t-16.5 -22.5q-4 -11 -6 -32.5t-6 -31.5q-16 -41 -43 -108q-6 -15 -27 -48.5t-27 -50.5q-6 -20 -12 -60.5t-10 -57.5q-5 -18 -21.5 -50.5 t-21.5 -48.5q-11 -31 -32 -100.5t-34 -106.5t-25 -79t-19.5 -73.5t-20.5 -85.5t-21 -87q-1 -4 -1 -30.5t-9 -40.5t-33 -15q-26 5 -26 51q0 27 4 47q-21 34 -21 121v35q0 41 -2 61q-5 81 -41.5 236t-44.5 229v23q0 10 1 28t1 27q0 3 -1 10t-1 10q-2 19 -10 55.5t-10 53.5 q-3 32 -7 147t-16 179q-8 2 -22 2q-17 0 -49 -7.5t-46 -7.5q-18 0 -34 13q-2 4 -2 10z" />
<glyph unicode="W" horiz-adv-x="1531" d="M-31 1309q1 18 13.5 27.5t26.5 11.5t37 2.5t32 1.5q78 12 108 12q21 0 33 -2q22 -94 64.5 -338.5t76.5 -366.5q12 0 22 9.5t14 18t10.5 27t7.5 21.5q14 33 34.5 100.5t30.5 94.5q3 7 4.5 26.5t5.5 28.5q1 2 11 13.5t12 19.5q6 23 9.5 74.5t10.5 76.5q2 8 16 28t17 26 t6.5 22t9 23.5t17.5 9.5q52 -16 88 -109q6 -15 7 -46t3 -42l8 -13q7 -13 14.5 -27.5t10.5 -22.5q9 -25 27.5 -74t25.5 -68q6 -17 27.5 -67t28.5 -74q5 -21 9 -66t15 -72.5t39 -45.5q23 48 44 101.5t48 128t39 106.5t38 108t47 129t46 99v20q0 16 -6 40t-6 38q119 18 231 18 q68 0 117 -8q3 -1 16 -2t20.5 -3t18 -6t15.5 -12t6 -20q-16 -8 -45 -8q-18 0 -58 5t-61 5q-41 0 -63 -12q-16 -13 -25.5 -35t-17 -52t-13.5 -44q-4 -11 -24 -51t-29 -68q-27 -74 -65 -207q-14 -49 -36.5 -184t-39.5 -195q-4 -13 -17 -42.5t-16 -45.5q-4 -18 -5.5 -51 t-4.5 -57t-11.5 -49.5t-30.5 -40.5t-57 -17q-17 25 -33 81.5t-22 70.5q-10 22 -38 59.5t-38 59.5q-6 11 -11.5 38.5t-8.5 36.5q-73 186 -76 195t-9.5 36t-12.5 40q-3 8 -16.5 27.5t-16.5 27.5q-6 16 -9.5 47.5t-12 54.5t-31.5 39q-5 -2 -10 -5t-9.5 -7.5t-7.5 -9t-6.5 -11 t-6 -10.5t-5 -12t-4 -11.5t-4 -11.5t-3.5 -10q-4 -11 -14.5 -44t-18.5 -52q-35 -83 -43 -98q-7 -12 -19.5 -33.5t-20 -34.5t-17.5 -36t-18 -48q-5 -16 -29.5 -85.5t-36.5 -108.5q-6 -24 -16.5 -72t-16.5 -70q-3 -11 -6.5 -32t-7 -35t-13.5 -29.5t-26 -24.5q-27 19 -35 48 t-8 77v47v45q-6 123 -53 374t-55 366q-2 28 -3 91t-5 111t-15 91q-6 6 -18 6q-9 0 -34 -10.5t-38 -10.5q-14 0 -29 15zM143 1280q0 -10 5.5 -18.5t15.5 -8.5q10 10 10 29q0 27 -20 27q-11 -11 -11 -29zM262 276q1 -9 0.5 -17.5t1.5 -16t8 -9.5q13 13 13 31q0 15 -13 15 q-1 0 -4.5 -1.5t-5.5 -1.5zM489 754q8 21 30 59.5t37 74t15 68.5q0 19 -6 37q-76 -145 -76 -219v-20zM1130 885q0 -3 3 -5q2 -2 4 -2h1q2 2 3 7q0 6 -6 6q-5 0 -5 -6zM1196 1178q2 0 5 -1t5 -1q22 0 33.5 19.5t11.5 45.5q0 30 -12 45q-1 -2 -6.5 -10t-7 -10.5l-6 -10 t-6 -11.5t-5 -11t-5 -12.5t-3.5 -12.5t-3 -14.5t-1 -15.5z" />
<glyph unicode="X" horiz-adv-x="1249" d="M45 57q7 26 51 35l37 6q1 0 4 1t4 1l9 9q4 6 12 22q14 23 44 84.5t52 93.5q11 16 31 33q16 13 28 31q9 17 20.5 50t14.5 40q9 22 25 35q3 2 8 7t8 7q13 12 13 14q1 3 2 9.5t2 9.5q4 12 8 16q4 5 13 13.5t13 13.5q17 17 25 33q5 8 9.5 24t6.5 21q4 11 27 43l31 43 q6 8 14.5 24.5t9.5 18.5q4 7 11.5 22.5t11.5 22.5q2 3 5 8t5 8l6 12v11q0 2 -2 4q-1 1 -3 4t-3 4q-3 6 -11.5 18.5t-11.5 18.5q-16 27 -51 88.5t-55 93.5q-13 22 -61 92q-20 30 -60 80q-13 16 -29 29q-5 3 -26 12q-39 13 -51 29q-6 6 -9 12q-2 2 -2 8v4q0 4 2 4 q6 1 18.5 4.5t18.5 4.5q59 8 86 10q3 0 35 3t49 3h4h11h12h4h2q2 0 5 -1t5 -1t7.5 -1t7.5 -1q7 0 8 -2h2q4 -7 0 -15q0 -2 -4 -6q-1 -1 -4 -3t-4 -3t-4.5 -3t-4.5 -3t-4 -3t-4 -3q-2 -1 -5 -1t-5 -1q-8 -4 -10 -4t-5 -1t-5 -1t-5.5 -1t-5.5 -1t-5 -1t-5 -1h-2 q41 -71 106 -181q11 -20 52 -86q10 -17 61 -80q2 -2 5 -6t5 -6q1 -1 2 -3t2 -3q3 -3 9.5 -4t9.5 2l6 6q4 2 8 6q3 2 8 11q6 8 17.5 25.5t17.5 25.5q3 4 10.5 13t10.5 13q1 1 3 4.5t3 4.5q4 4 4 8q1 3 4 10t4 10q9 26 37 80q3 6 10 19.5t10 19.5q18 37 19 39q4 15 -2 24 q-5 8 -14 11q-8 3 -15 10q-7 11 -4 25q0 2 2 2q1 0 3 1t3 1q2 0 6.5 1t6.5 1q4 1 13 3t13 3q31 8 49 10q74 14 158 14q99 0 193 -24q-10 -31 -50 -31q-10 0 -30 4t-21 4q-32 9 -49 2q-2 -1 -6 -1t-6 -1q-14 -5 -15 -6q-7 -7 -20 -29q-8 -14 -26 -37t-23 -30t-14.5 -21.5 t-14.5 -21.5q-22 -30 -29 -45q-3 -6 -10.5 -22.5t-11.5 -24.5q-2 -4 -11.5 -6.5t-11.5 -6.5q-6 -14 -19.5 -42.5t-19.5 -43.5q-17 -38 -45 -92q-4 -8 -24 -39q-10 -17 -10 -34q2 -29 32 -78q5 -9 15.5 -25t18.5 -29t13 -26q31 -69 39 -82q13 -20 29 -33q25 -25 29 -31 q7 -13 39 -90q12 -32 51 -84q5 -7 59 -75q18 -22 27 -35q2 -3 5 -9.5t5 -9.5q1 -1 3 -4t3 -4h11q8 -4 10 -8q3 -6 16 -6q24 -4 37 -4q60 -5 72 -8q39 -10 49 -39q-45 -10 -107 -17q-43 -5 -53 -4q-7 1 -22.5 5t-22.5 5h-12q-16 0 -70 -14q-47 -14 -67 -14h-11q-19 3 -30 14 q-5 3 -5 8q0 2 1.5 4t1.5 4q0 1 2 8t4 11l12 12q4 3 11 9.5t11 9.5q2 1 7.5 4t7.5 4q8 4 8 10q0 1 -1 4t-1 4v12q0 11 -8 35q-5 15 -15 35q-17 38 -36 66q-5 8 -15.5 23t-18.5 27.5t-14 24.5q-8 16 -43 93q-4 8 -12 23.5t-12 23.5q-2 4 -6 11t-6 11q-1 1 -5 9t-8 12 q-2 2 -7 6t-7 6t-5.5 8t-4.5 8q-6 12 -17 23q-6 7 -17 15t-15 12q-6 6 -13 6q-14 0 -20 -4t-17 -15q-19 -19 -51 -59q-29 -36 -47 -62q-2 -4 -24 -37.5t-31 -50.5q-4 -8 -6 -14q-1 -2 -4.5 -6t-4.5 -6q-1 -1 -12 -23q-5 -12 -13 -33.5t-13 -33.5q-7 -16 -23 -44t-20 -36 q-8 -16 -26 -46t-26 -46q-13 -26 -22 -50q-6 -12 0 -16q2 -2 8 -2q2 0 6 -1t6 -1q27 -6 58 -6q5 0 16 2t16 2q7 1 21.5 2t21.5 2q3 0 10.5 1t10.5 1l9 1q9 2 9 -1q5 -5 -4 -10q-3 -2 -8 -5t-8 -5q-14 -9 -19 -11q-22 -7 -38 -10q-28 -4 -41 -4q-7 0 -20.5 1t-20.5 1h-7 q-70 4 -100 4h-4q-55 0 -94 -10q-10 -2 -38.5 -10.5t-49 -12.5t-39.5 -4q-13 0 -33 4zM643 715q0 -14 10 -19q2 11 17.5 22t15.5 25v9h-4q-13 0 -26 -12.5t-13 -24.5z" />
<glyph unicode="Y" horiz-adv-x="985" d="M20 1452q0 5 3 14q20 -2 59 -2q43 0 116 9.5t105 9.5q39 0 88 -17q-7 -12 -23.5 -30t-19.5 -23h-10q-16 0 -32.5 -10t-22.5 -12q-2 -8 -18.5 -61.5t-27 -106.5t-10.5 -105q0 -39 11.5 -134.5t11.5 -147.5v-31q-1 -12 -5.5 -36.5t-4.5 -27.5q0 -36 46.5 -71t71.5 -37 q13 -1 21 1t19 10t14 9q9 5 23 12l22 11q2 1 5 10t5 10q10 4 34.5 9.5t41.5 13.5q4 5 34 57.5t52 73.5v43q0 91 31 233.5t34 221.5q-5 12 -18 12q-7 0 -21 -5t-20 -5q-13 0 -17 8v88q36 27 125 27q42 0 121 -8t90 -9q-4 -19 -15.5 -31.5t-31.5 -24.5t-28 -20 q-40 -350 -43 -477v-16q0 -16 1 -69.5t1 -86.5q0 -59 -2 -88q0 -10 -5 -28t-6 -27q-5 -47 -6.5 -116t-3.5 -109.5t-17.5 -92.5t-47.5 -94q-18 -1 -61 -33t-71 -43q-16 -6 -60.5 -10.5t-68.5 -11.5q-11 -3 -41 -16.5t-47 -14.5q-1 0 -3 -1t-3 -1q-10 0 -33 5.5t-36 6.5h-19 q-13 0 -35.5 -1t-31.5 -1q-17 0 -23 2q-102 26 -102 97q0 46 49 98q4 4 13.5 15.5t14.5 16t13.5 11.5t18 9.5t20.5 2.5h16q-6 -6 -22.5 -19.5t-23 -20.5t-16.5 -19t-14 -24t-4 -27q0 -11 4 -31q16 -66 109 -66q34 0 80.5 10t80 20.5t78 26.5t54.5 19q51 41 51 150 q0 26 -4 78.5t-4 76.5q0 15 2 47t2 50q0 52 -15 86q-29 -12 -70.5 -64t-80.5 -65q-21 -7 -76 -7q-89 0 -141 17q-3 1 -5.5 11t-4.5 11q-4 2 -16.5 0t-16.5 0q-2 1 -5 10.5t-5 10.5q-9 4 -11.5 4.5t-6.5 3.5t-4 4.5t-3.5 8t-7.5 12.5q-2 3 -11.5 11t-11.5 11q-7 12 -20 36 t-23 40q-2 3 -11 17t-17.5 27t-14.5 21q-2 39 -2 111q0 91 17.5 251t17.5 249q0 14 -10.5 20.5t-23.5 8t-23.5 8t-10.5 20.5zM119 1282q2 -2 9 3t3 9h-2q-10 0 -10 -8v-4zM204 1314q2 -6 13 -9q4 4 8.5 16t3.5 24t-12 13q2 -6 -2 -15t-9 -15q-3 -5 -3 -10q0 -2 1 -4z M674 186h8q12 0 14 21t9 24h-5q-9 0 -14 -5t-6.5 -9.5t-3 -16t-2.5 -14.5z" />
<glyph unicode="Z" horiz-adv-x="874" d="M33 27q0 17 16 49q1 2 11.5 0.5t11.5 -0.5q3 3 4.5 24t5.5 29q5 10 16 31.5t17 34.5q54 134 75 194q13 32 21 66q3 10 5.5 35.5t6.5 39.5q2 7 16.5 21.5t16.5 21.5q3 10 5 33.5t5 32.5q72 203 109 348q5 20 14 60t14.5 63.5t15.5 56t21 58.5q10 24 46 88.5t51 107.5 q-58 19 -115 19q-24 0 -81.5 -4t-94.5 -4h-13q-17 -6 -26 -26t-11.5 -40t-14.5 -36t-34 -17v6q0 17 -6 50t-6 50q0 24 12 45q26 23 80 23q12 0 34 -1t32 -1h6q10 0 26.5 6t26.5 6q12 0 35 -6t35 -6h6q16 1 49.5 10t48.5 12q18 3 67 8t80.5 12.5t59.5 22.5q27 0 27 -14 q0 -3 -2.5 -13.5t-3.5 -15.5q8 -2 22 -2q15 0 36.5 5.5t29.5 5.5q11 0 20 -9q-2 -26 -21 -43.5t-47 -33.5t-40 -31q-8 -9 -18 -37.5t-15 -38.5q-111 -220 -217 -500q-4 -11 -35 -96t-51 -131q-6 -16 -19.5 -50.5t-23.5 -58.5q-76 -178 -88 -270q18 -6 43 -6q22 0 69 7.5 t72 8.5h10q16 0 47 -3t45 -3q21 0 39 6q29 14 41 79.5t25 82.5h2q33 0 46 -12.5t13 -36.5q0 -8 -1 -18t-2.5 -22t-2.5 -19q-4 -28 -29 -76.5t-26 -52.5q-6 -2 -16 -2q-20 0 -50.5 10t-42.5 12q-32 4 -49 4q-85 0 -167.5 -28t-176 -75t-137.5 -63q-6 6 -6 17zM223 336 q0 -8 6 -8q4 0 4 8q0 6 -6 6q-4 0 -4 -6zM418 911q1 -1 2 -1q2 0 5 2q5 3 5 6l-2 4h-2q-3 0 -7 -4q-2 -2 -2 -4t1 -3zM590 1194q0 -21 12 -45q15 33 52 115t57 125q-3 10 -17 10h-6q0 -7 -1 -12t-2.5 -8.5t-5.5 -7.5t-6 -5.5t-8.5 -5t-7.5 -4.5v-2q0 -34 -33.5 -82.5 t-33.5 -77.5z" />
<glyph unicode="[" horiz-adv-x="655" d="M86 1163v31q1 9 2 55.5t5.5 75.5t15.5 53q21 48 22 64q4 27 4 82v26q0 13 4.5 17.5t18.5 9.5q32 8 47 8q14 0 22 -2q62 -10 74 -10q3 0 9 1t9 1q46 4 64 4q6 0 18.5 -1t18.5 -1q25 -2 74 -2h51q39 0 57 -2q-6 -12 -6 -27q0 -7 3 -23t3 -24q0 -7 4 -25t4 -28q0 -6 -4 -14 q-6 -13 -24 -13h-17q-13 0 -41 1t-41 1q-35 0 -53 -2h-10q-10 0 -31 2t-31 2q-3 0 -9 -1t-9 -1q-28 -5 -31 -16q-2 -7 1 -25.5t1 -27.5q-10 -38 -10 -66q0 -14 2 -22t2 -25q0 -22 -4 -68q-6 -74 -14 -215q-1 -20 -3 -59.5t-3 -60.5q-5 -222 -7 -244q-1 -13 -1.5 -35 t-1.5 -41.5t-3 -40.5q-2 -25 -2 -76q0 -23 1 -69t1 -68v-14q0 -42 -4 -62l4 13v-15v-20v-76v-37q21 -12 54 -12q26 0 36 2q24 3 75.5 24t80.5 21q30 0 55 -14q23 -13 23 -35q0 -7 -4 -31q-3 -11 -0.5 -32.5t0.5 -30.5q-2 -14 -16 -22.5t-24 -9.5l-30 -3h-33q-19 0 -40 1 t-46.5 2.5t-40.5 2.5h-14q-37 0 -115 -12h-8q-16 0 -24 8h-11q-26 0 -47.5 11.5t-27.5 31.5q-7 18 -7 37q0 23 7 68t8 57q0 11 4 89.5t4 119.5v28q0 27 -2 39q-1 11 -7 36.5t-7 39.5q0 8 8 25.5t8 25.5q0 10 -5 33.5t-5 32.5q0 227 -13 362q-2 25 -7 69.5t-8 80.5t-3 67z " />
<glyph unicode="\" d="M10 1595q0 2 0.5 4t2.5 3.5t3.5 2.5t5 1.5t6 1t7 1t7.5 0.5t8 0.5t9 0.5q3 0 8.5 1t8.5 1q81 0 143 -41q25 -16 48.5 -45t46.5 -76t32 -67.5t29 -69.5q14 -33 24.5 -69t24 -96.5t16.5 -74.5q35 -139 109 -346q3 -9 5 -32t5 -33q2 -7 16.5 -22t16.5 -22q4 -14 6.5 -39.5 t5.5 -35.5q8 -34 21 -66q21 -60 75 -194q5 -14 22 -45t28.5 -58t11.5 -47q0 -26 -26 -48t-56 -22q-17 0 -29 9q-24 17 -43 47t-28.5 55.5t-22.5 66t-20 58.5q-15 37 -45.5 131.5t-51.5 144.5q-10 24 -23.5 58.5t-19.5 50.5q-20 46 -51 131t-35 96q-103 272 -217 498 q-10 20 -33.5 77t-40.5 85q-10 17 -10 24z" />
<glyph unicode="]" horiz-adv-x="655" d="M55 1444q0 10 4 28.5t4 24.5q0 8 3.5 24t3.5 23q0 9 -9 27q18 2 60 2h51q49 0 74 2q6 0 17.5 1t17.5 1q19 0 65 -4q3 0 9.5 -1t9.5 -1q9 0 71 10q8 2 25 2q15 0 47 -8q14 -5 18 -9.5t4 -17.5v-26q0 -48 5 -82q1 -16 22 -64q11 -24 15 -54t4.5 -73.5t1.5 -56.5 q0 -5 1 -15.5t1 -15.5q0 -41 -9 -122.5t-10 -94.5q-12 -125 -12 -362q0 -9 -5 -32.5t-5 -33.5q0 -8 8 -25.5t8 -25.5q-1 -14 -7 -39.5t-7 -36.5q-2 -12 -2 -39v-28q0 -41 4 -120.5t4 -90.5q1 -12 7.5 -56t6.5 -67q0 -22 -6 -37q-6 -19 -28 -31t-48 -12h-10q-8 -8 -25 -8h-8 q-78 12 -114 12h-15q-15 -1 -59 -4.5t-68 -3.5q-5 0 -16.5 1t-16.5 1l-30 3t-23.5 9.5t-15.5 22.5q-2 9 0.5 29.5t-0.5 31.5q-4 24 -4 31q0 25 22 37q25 14 56 14q29 0 80 -21t75 -24q10 -2 37 -2q36 0 53 10q0 6 -1 18.5t-1 18.5q0 14 1 40t1 38v20v15l4 -13q-4 20 -4 62 v14q0 22 1 67t1 68q0 51 -2 78q-2 21 -3 40.5t-1.5 41.5t-1.5 35q-3 37 -4 77.5t-1 90t-1 76.5q-1 20 -3 59.5t-3 60.5q-8 141 -14 215q-5 58 -5 66q0 19 2 27q3 12 3 22q0 24 -11 66q-2 9 1 27.5t1 25.5q-3 10 -32 16h-17q-10 0 -30.5 -2t-30.5 -2q-2 0 -5 1t-5 1 q-18 2 -54 2q-14 0 -41 -1t-41 -1h-16q-20 0 -27 13q-2 4 -2 14z" />
<glyph unicode="^" horiz-adv-x="962" d="M35 1071q2 18 12.5 33.5t30 34.5t26.5 28q6 7 31.5 40t40.5 50q13 15 41 44.5t41 44.5q7 8 20.5 29t27 33.5t32.5 18.5q10 40 59 90.5t62 79.5h20h8q13 0 22 -8.5t17.5 -22t14.5 -18.5q12 -10 71 -80q172 -204 232 -268q3 -3 5 -12t5 -12q2 -2 10 -4.5t10 -4.5 q3 -3 5.5 -11t5.5 -11q2 -2 12.5 -11t17 -16t13 -18t6.5 -21q0 -13 -8 -24q-16 -4 -23 -4q-6 0 -22 3t-29 3q-3 0 -9 -1t-9 -1q-21 -2 -62 -13.5t-70 -11.5h-10q-38 34 -69 74q-8 11 -24 38t-28 42q-2 3 -10.5 9t-9.5 7q-2 3 -31 41q-9 11 -43 45.5t-37 34.5 q-9 0 -16.5 -4.5t-14 -13t-11 -17.5t-9 -23t-7.5 -23.5t-7 -25t-6 -22.5q-23 -8 -48 -42t-45 -46q-6 -3 -18.5 -4t-19.5 -4q-1 -1 -10 -9t-11 -8q-50 -12 -115 -12q-47 0 -67 4z" />
<glyph unicode="_" horiz-adv-x="1157" d="M27 188q0 18 6 27q18 27 100 33q12 2 37 2t71 -3.5t58 -4.5q272 -10 328 -11q7 0 20.5 -1t20.5 -1q46 0 139 4.5t139 4.5q6 0 18.5 1t18.5 1q37 0 57.5 -10.5t20.5 -41.5q0 -12 -3 -33t-3 -32q0 -8 3 -23t3 -24q0 -7 -4 -15q-10 -16 -53 -16h-27q-41 0 -127 4 q-136 4 -203 4q-178 0 -336 -14q-62 -4 -90 -4q-24 0 -50 1t-58 2.5t-50 2.5q-1 6 -0.5 23.5t-1.5 23.5q-2 9 -11.5 24.5t-12.5 22.5q-10 30 -10 53z" />
<glyph unicode="`" horiz-adv-x="430" d="M51 1462q0 22 10 45q8 18 26.5 40t35.5 32q2 -1 7 -2t7 -2q25 -10 67 -37.5t68 -38.5q46 -43 80.5 -107t34.5 -102q0 -12 -2 -16q-2 -2 -4 -2q-6 0 -8 2q-15 6 -63.5 39t-63.5 39q-10 3 -10 0q-6 -2 -21 -2q-43 0 -102 26q-16 7 -25 13q-37 27 -37 73z" />
<glyph unicode="a" horiz-adv-x="915" d="M-8 94q4 22 27 31.5t52.5 16t41.5 18.5q3 57 30 159t33 134q15 79 45 194q20 71 39 163.5t30.5 160.5t30.5 185t29 175q-5 11 -39.5 13t-36.5 20q12 32 46.5 42t91.5 9h41q43 0 61 2q23 3 68.5 17t66.5 14t37 -8q-3 -18 -15 -31.5t-25.5 -20.5t-27 -19t-18.5 -28 q21 -50 33.5 -109.5t23.5 -139t19 -119.5q5 -24 22 -75.5t21 -76.5q9 -49 13 -139.5t9 -130.5q2 -15 10.5 -43t10.5 -45q4 -29 8.5 -87t12 -101.5t24.5 -81.5q17 -7 27 -7q16 0 46 13.5t56 13.5q-1 -17 -12 -29t-23 -17t-24.5 -15.5t-16.5 -24.5h-14q-40 0 -100 -22.5 t-84 -22.5q-13 0 -19 2q1 26 25.5 50.5t29.5 35.5q-26 71 -34 243.5t-21 233.5q-3 0 -8 1t-8 1q-29 0 -75.5 -12t-74.5 -12q-18 0 -28 2q-29 -24 -40.5 -61t-15.5 -89.5t-10 -77.5q-37 -163 -43 -229q3 -16 16 -16q8 0 29.5 8t30.5 8q17 0 22 -20q6 -9 6 -17q0 -23 -71 -39 q-36 -41 -125 -41q-79 0 -158 31q-6 2 -14 2q-12 0 -33.5 -6t-28.5 -6q-17 0 -22 20zM434 754q0 -17 4 -41q28 -11 62 -11q75 0 133 43q-16 126 -24.5 183.5t-28.5 153.5t-45 163q0 10 -9 10h-2q-15 -28 -20.5 -63.5t-7 -82.5t-4.5 -71q-6 -40 -32 -137.5t-26 -146.5z" />
<glyph unicode="b" horiz-adv-x="763" d="M-10 1341q0 12 5 23.5t18.5 27.5t16.5 19l19 19q17 17 108 20.5t119 11.5q7 2 21 10.5t22 10.5q55 12 103 12h18q50 -5 142 -65q40 -27 82 -109q13 -25 28 -72q8 -25 10 -28q0 -1 2.5 -2t2.5 -2q6 -8 6 -27q-4 -46 -21 -86q-4 -10 -21 -23.5t-22 -19.5 q-89 -117 -123 -152q1 -13 11 -22.5t25 -18.5t20 -14q8 -8 43 -53q10 -13 18 -27t17.5 -35.5t17.5 -36.5q1 -3 11 -10.5t11 -9.5q21 -65 21 -164v-10q0 -42 -4.5 -90t-14 -117t-12.5 -98q-12 -9 -53.5 -46t-75 -58t-78.5 -36q-86 -28 -188 -28q-47 0 -105 6q-3 0 -19 1.5 t-21 2t-19.5 2t-21 2.5t-18.5 3.5t-19.5 5.5t-16.5 7t-16 9v6q0 15 10 23.5t22.5 11t25.5 8.5t18 16q-4 62 -4 90q0 60 7 166t7 152q0 14 -5 27.5t-5 19.5q1 44 10 130.5t10 129.5q0 8 -5 26t-5 29q0 9 5 27.5t5 26.5q-1 13 -5.5 45.5t-4.5 52.5q0 29 10 84t12 78q1 11 6 40 t5 44q0 34 -23 57q-15 -8 -40 -11t-36 -10q-3 -2 -5 -16t-5 -16q-6 -3 -13.5 -2t-14 -1t-5.5 -10q-26 18 -26 43zM297 659q0 -213 45 -499q73 3 121.5 43t70 99.5t25.5 139.5q0 8 1 25t1 25q0 102 -22 189t-56 140q-27 17 -53 17q-53 0 -131 -60q-2 -41 -2 -119zM309 897 q6 -2 21 -2q17 0 32.5 8.5t32.5 28t27 33t29 41.5q63 98 75 120q33 59 33 117q0 91 -65 143q-59 46 -95 46q-2 0 -7 -1t-7 -1h-20q-46 -209 -56 -533z" />
<glyph unicode="c" horiz-adv-x="696" d="M10 795q0 101 41 317q11 70 33 141q26 84 57 137t84 80q28 14 88.5 25.5t118.5 11.5q67 0 96 -14q3 -2 11 -11t12 -12q31 -16 60.5 -43.5t29.5 -56.5q0 -6 -4 -18q-34 11 -72 52t-80 44h-4q-48 0 -82 -21q-38 -23 -89 -128t-62 -177q-2 -10 -2 -32q0 -12 1 -39t1 -39 q0 -10 -6 -31t-6 -31q0 -3 6.5 -17.5t5.5 -25.5q-6 -105 -6 -119q0 -45 6 -98q1 -18 2 -47t2.5 -49.5t5.5 -34.5q6 -24 29 -56.5t24 -51.5q5 -8 22 -47t34 -52q19 -36 29 -53t29.5 -43t41.5 -41.5t51 -24.5q30 6 45 34.5t18.5 64.5t7 71.5t20.5 61.5t50 29q19 -7 25.5 -22.5 t9.5 -46.5t8 -50q1 -4 12 -14.5t11 -18.5t-9.5 -25t-13.5 -30q-3 -10 -5 -34.5t-5 -29.5q-9 -14 -47.5 -44.5t-50.5 -31.5q-129 -12 -156 -12h-28q-49 5 -119 43.5t-88 44.5q-85 133 -119 228q-3 8 -14.5 37t-18 50.5t-10.5 41.5q-2 6 -2 18q0 8 2 25.5t2 25.5q0 13 -2 19 q-1 8 -11.5 26.5t-11.5 26.5q-8 55 -8 117z" />
<glyph unicode="d" d="M29 1331q1 16 12 28t22.5 17t34 11.5t29.5 9.5q130 55 225 55q4 0 12.5 -1t12.5 -1q93 -5 227 -96q51 -35 68 -58t41 -94q3 -9 4.5 -30.5t5.5 -34.5q3 -8 11 -29.5t13.5 -40.5t8.5 -39q2 -12 2 -41q0 -14 -1 -45t-1 -47q0 -25 1 -67t1 -60q0 -41 -2 -66q0 -1 -6 -8 t-5 -14v-10q0 -20 -12 -86q-57 -287 -162 -402q-19 -22 -55.5 -52.5t-42.5 -35.5q-3 -3 -11 -6t-20.5 -6.5t-21.5 -7.5q-88 -39 -141 -43q-4 0 -18 -1t-23 -1q-76 0 -111 12q-2 1 -11 10.5t-12 11.5t-18.5 7t-27 11.5t-11.5 14.5q0 2 4 10q2 31 21 32q10 0 33 -12.5 t32 -12.5q8 0 10 4q21 47 21 100q0 23 -4 78t-4 84q0 40 6 121t6 121q0 33 -2 49q-2 20 -2 61q0 16 1 51.5t1 55.5q0 18 -5 50t-5 48q0 34 9 94.5t11 83.5v43q0 -3 -8 3q-7 5 -2 9q10 10 10 127v58q-8 6 -24 6t-49.5 -18.5t-51.5 -18.5q-15 0 -26 8zM358 201q0 -32 7 -51h16 q32 0 70.5 20t54.5 23v4q0 37 31 92.5t34 66.5q3 8 4.5 23.5t3.5 38.5t3 35q3 21 12 239q1 32 10.5 94t9.5 93q0 19 -5 58t-5 58q0 7 5 14t5 9q0 4 -5 14t-5 19q-4 162 -43 227q-16 27 -57 53.5t-76 26.5q-37 0 -51 -37q-8 -57 -8 -137q0 -53 3 -115t8 -139t7 -119v-31 q0 -39 -5 -114.5t-5 -114.5q0 -27 5 -77.5t5 -74.5v-12q-1 -34 -15 -95.5t-14 -90.5z" />
<glyph unicode="e" d="M51 1378q165 51 359 64q27 2 86.5 10t89.5 8q54 0 94 -18q15 -19 27 -58t11 -75q0 -45 -16 -62h-12q-30 0 -47 18t-22.5 41.5t-15 51t-23.5 41.5q-20 -10 -76 -10h-60q-69 0 -92 -23q6 -65 6 -125q0 -63 -8 -193t-8 -202v-43q21 -12 47 -12q31 0 105 22q15 6 21.5 43 t21.5 43q1 0 3 1t3 1q13 0 23 -5.5t16 -20t8.5 -21t7 -28.5t4.5 -23q10 -44 10 -123q0 -3 1 -9t1 -9q-4 -2 -28 -21.5t-39 -19.5q-10 0 -21 8q-24 0 -24 16q0 7 7 26t7 27v7q-82 14 -131 14q-17 0 -33 -4q-22 -105 -22 -254q0 -38 12 -320h39q23 0 67 -2t64 -2q97 0 133 58 q12 0 17 10t4.5 22.5t4.5 22.5t17 10q43 0 42 -47q0 -15 -4 -45t-5 -39q-13 -1 -35.5 -24.5t-40.5 -28.5q-36 -10 -125 -10q-29 0 -88.5 1t-85.5 1q-57 0 -80 -2q-18 -3 -43 -3q-10 0 -28.5 1.5t-26.5 1.5h-4q-4 0 -16 -1.5t-17 -1.5q-39 0 -39 25q0 19 12.5 27t39 11 t34.5 5q-12 77 -12 154q0 85 19.5 263t19.5 273q0 35 -4 101q-13 136 -13 243t13 181q-6 2 -21 2t-45 -7.5t-43 -7.5q-35 0 -43 45z" />
<glyph unicode="f" horiz-adv-x="653" d="M25 127q3 29 24 29q5 0 16.5 -2t16.5 -2q10 0 18 8q0 5 1 16.5t1 16.5q0 18 -1 51t-1 49v41q1 17 12 51t11 51q0 9 -6 29t-6 29q0 25 10.5 77t11.5 76q0 10 1 30t1 30q0 27 -1 79.5t-1 77.5v56q2 31 12.5 96t10.5 102q0 26 -7.5 77t-7.5 75q0 51 25 94q-12 12 -33 12 q-11 0 -30 -4t-27 -4q-22 0 -29 16q1 17 14 26.5t28 12t40.5 4t36.5 3.5q161 29 358 32q9 0 20 4t15 4q8 0 19 -8q33 -37 45 -108q6 -40 6 -88q0 -118 -39 -152q-23 32 -23 90q0 16 2 48t2 48q0 62 -26 97q-20 10 -47 10q-16 0 -50 -5t-53 -5h-12q-21 -49 -27 -107t-6 -151 v-54v-47q0 -25 -1 -74.5t-1 -72.5q0 -55 2 -80q18 -16 60 -16q8 0 25 1t26 1q24 0 51 -9q11 -3 17.5 -5.5t13 -10t2.5 -16.5q-13 -29 -43 -29q-16 0 -58 15.5t-67 15.5q-2 0 -8.5 -1t-8.5 -1q-22 -5 -22 -33q0 -4 1 -12.5t1 -12.5q0 -12 -6 -41.5t-6 -46.5q0 -13 6 -42 t6 -46t-11 -50.5t-12 -51.5v-23v-63v-23q-2 -36 -12 -89t-10 -68v-17q8 -23 26 -34t44.5 -18t37.5 -13q-15 -27 -28 -35t-39 -8h-19q-15 1 -45 20.5t-41 22.5q-17 4 -59.5 6t-60.5 6q-6 1 -21 3t-23 4t-19 6t-16.5 11.5t-6.5 18.5zM197 1268q0 -21 12 -23q12 8 12 41 q0 21 -12 23q-12 -8 -12 -41z" />
<glyph unicode="g" horiz-adv-x="813" d="M14 453v14q0 25 10.5 72.5t12.5 66.5q3 42 6 175.5t14 203.5q2 12 11 38.5t12 37.5q4 18 5.5 46t4.5 40q1 3 12 17t11 16q3 13 11 51t12.5 55.5t12.5 47t17.5 52.5t21.5 44q51 88 109 131q116 -11 227 -56q5 -2 23.5 -8t28 -10.5t21 -17t15.5 -29.5h-10q-24 0 -69 24.5 t-78 24.5q-25 0 -39 -4q-30 -8 -54 -45q-4 -6 -6 -20t-6 -23q-1 -2 -10.5 -11t-9.5 -10q-6 -27 -6 -63q0 -23 3 -81t3 -89v-27q-4 -125 -11 -207q-3 -35 -16 -104t-16 -103q-4 -58 -4 -84q0 -30 2 -88t2 -88v-32q0 -19 -3 -47.5t-3 -43.5q0 -23 6 -61l10 -65 q10 -23 34 -44.5t51 -39.5t34 -25q18 5 46.5 28t51.5 27q-4 148 -4 230q0 98 4 149q-12 10 -35 10q-12 0 -35.5 -3t-33.5 -3q-17 0 -26.5 8t-10.5 31q31 13 115 17t102 6q20 2 59 11t49 11q7 1 27 9t29 8q14 0 20 -17q0 -2 1 -7t1 -7q0 -21 -14.5 -31.5t-33 -13t-37.5 -9.5 t-25 -20q6 -46 6 -88q0 -168 -92 -280q-14 -18 -25 -27.5t-36.5 -25t-37.5 -23.5q-11 -7 -28.5 -24t-24.5 -19q-41 -13 -72 -13q-27 0 -57.5 8.5t-50 17.5t-53.5 27t-50 25q-6 20 -36.5 57t-38.5 62q-6 19 -11 77.5t-12 84.5q-4 14 -18 40t-15 36z" />
<glyph unicode="h" horiz-adv-x="880" d="M-4 59q4 35 27.5 53.5t66 33t57.5 22.5q-2 4 -2 14q0 8 7.5 25t7.5 26q0 14 -11.5 34t-11.5 32q0 2 5 34.5t5 51.5q0 16 1.5 46.5t1.5 45.5q0 50 -2.5 149t-2.5 148q0 82 2 121q0 3 -5 14t-5 19q2 43 19.5 198.5t17.5 247.5q0 28 -4 86q-10 10 -29 10q-6 0 -16.5 -2 t-15.5 -2q-25 0 -25 37q133 12 303 53q10 -15 10 -28t-14.5 -33t-17.5 -35q-19 -324 -21 -575q24 -4 41 -4q35 0 119.5 12t126.5 12h6q12 73 12 201q0 39 -2 120t-2 120q0 54 2 81q-10 11 -56 12.5t-52 20.5q35 72 159 72q55 0 107 -16.5t82 -45.5q-3 -24 -31 -24 q-13 0 -40.5 7t-35.5 7h-2q-22 -19 -22 -49q0 -11 5 -35t5 -37v-20q0 -63 -5 -194t-5 -197q0 -30 3 -91.5t3 -93.5q0 -45 -6 -98q-2 -13 -12 -37.5t-11 -38.5q-1 -9 5.5 -26t6.5 -27q0 -6 -6 -25t-6 -30q0 -10 6.5 -27.5t5.5 -25.5q-1 -15 -11.5 -45t-10.5 -41 q0 -15 12.5 -45.5t12.5 -47.5q0 -3 -1.5 -10.5t-1.5 -11.5q0 -17 25 -17h14q23 0 25 -10q-8 -28 -49 -46.5t-80 -18.5q-16 0 -44.5 10t-41.5 10v6q0 21 25 34.5t28 25.5q-2 25 -2 75q0 65 6 191.5t6 187.5q0 103 -10 174q-137 -21 -293 -63q0 -27 -22 -33q8 -47 8 -106 q0 -49 -8 -155t-8 -159q0 -90 20 -166q24 -4 29 -4q23 0 52.5 18.5t53.5 18.5h17q-4 -24 -21.5 -40t-42 -30.5t-35.5 -27.5q-12 2 -42 6.5t-47 7t-43.5 4.5t-49.5 2q-36 0 -88 -10q-16 -4 -50 -22.5t-52 -18.5q-16 0 -29 8zM279 961q0 -9 6 -9q3 0 16 9q0 8 -12 8 q-7 0 -10 -8z" />
<glyph unicode="i" horiz-adv-x="641" d="M33 43q7 24 32 37t55.5 24.5t43.5 26.5q10 54 10 131v62v61q0 15 -5 45t-5 45q0 22 9 59.5t11 51.5q6 52 6 104q0 3 -6 168v12q0 40 11.5 126.5t11.5 131.5q0 9 -5 32t-5 32v29q0 112 22 204q1 6 -0.5 16t-1.5 13q0 13 -31 21h-20h-14q-34 0 -48 14q-16 17 -4 29 q4 4 11.5 5.5t14 0.5t13.5 0q12 2 39 2q20 0 63 -3t64 -3q10 0 37 -6.5t37 -6.5h2q12 0 24.5 2.5t28.5 7.5t25 7q24 6 28 6q1 0 3.5 -1t3.5 -1q3 -1 15 -1.5t15 -2.5q11 -8 -5 -24.5t-27 -18.5q-8 -2 -29 -1.5t-29 -2.5q-3 -1 -8.5 -5t-11.5 -6.5t-13 -1.5q-1 -28 -4 -84.5 t-4 -85.5q-4 -70 -4 -104q0 -32 4 -94q1 -8 3 -26t3 -26q2 -18 2 -55q0 -8 1 -26.5t1 -26.5q0 -11 -4 -35q0 -3 -1 -9t-1 -9q0 -11 2 -34t2 -34v-55q-2 -96 -9.5 -287.5t-10.5 -288.5q16 2 49 2q84 0 135 -22q6 -3 19 -5t19.5 -5.5t6.5 -12.5q0 -6 -2 -10q-3 -8 -51 -8 q-5 0 -14.5 -1t-14.5 -1q-10 0 -31.5 1t-31.5 1q-16 0 -44 -4.5t-40 -5.5q-26 -4 -39 0q-15 6 -25 2q-6 -2 -17 -8.5t-17 -8.5q-25 -9 -152 -43q-7 -2 -31 -12t-37 -10q-17 0 -30 10z" />
<glyph unicode="j" horiz-adv-x="966" d="M45 326v6q17 -4 26 -15.5t15.5 -32t11.5 -28.5q2 -3 21 -32.5t24 -45.5q17 -4 41.5 -11t47.5 -12.5t53 -9.5q1 0 16 -6t27 -4q56 9 100.5 79.5t50.5 150.5v18q0 31 -10 103t-12 106q-13 305 -13 465q0 106 2 155q1 16 7 46.5t6 44.5q0 19 -13 38q-18 13 -63 13h-61 q-77 0 -82 43q29 4 88 4q15 0 48 -1t50 -1q69 0 129 8q30 4 128.5 28.5t166.5 26.5q2 0 12 -2t13.5 -3t9.5 -4t7.5 -9t0.5 -14q0 -2 1 -6.5t1 -6.5q0 -18 -18 -18q-8 0 -22 4t-17 4q-19 0 -65.5 -5.5t-63.5 -15.5q-58 -36 -58 -186q0 -59 2 -86q0 -6 1 -19.5t1 -19.5 q0 -39 -6 -113t-6 -110q0 -17 4.5 -46t5.5 -40q6 -70 7.5 -193.5t3.5 -164.5q1 -18 7.5 -50.5t6.5 -48.5t-2 -22q-6 -30 -28 -56t-47 -52.5t-34 -53.5q-12 -5 -51 -24t-73 -30.5t-62 -11.5q-43 0 -76 33q-20 0 -38.5 2t-37.5 7.5t-31 9t-31 13t-26 13.5l-28 16t-25 15 q-4 14 -17 45.5t-19.5 57t-6.5 55.5z" />
<glyph unicode="k" horiz-adv-x="1052" d="M59 154q5 18 38 29t38 14q4 114 4 178q0 154 -13 474t-13 458q0 22 1 64t1 61q0 12 -8.5 19t-19.5 9.5t-19.5 9.5t-8.5 19v12q16 45 82 45q8 0 24.5 -1t24.5 -1q13 -1 61.5 -20t82.5 -19q20 0 41 7v-5q0 -23 -15.5 -49.5t-17.5 -32.5q-1 -48 -4.5 -139.5t-3.5 -136.5 q0 -72 8 -137q19 6 30.5 21.5t21.5 42t14 34.5q5 9 16 26.5t16 26.5q3 6 10.5 27t12.5 29q4 8 21.5 22t21.5 21q13 21 36.5 73t39.5 78q-3 11 -16 17t-26 7.5t-23.5 9.5t-10.5 23v9q50 32 131 33q54 0 96 -23q-76 -198 -174 -369q-3 -6 -8 -17.5t-10 -20.5t-13 -17 q-5 -5 -12.5 -19t-17.5 -35.5t-15 -31.5q-2 -4 -9.5 -15t-11.5 -17.5t-7.5 -17.5t-3.5 -20v-6q14 -13 49.5 -28.5t48.5 -26.5q13 -23 47.5 -72.5t50.5 -79.5q17 -34 53 -131q2 -4 6 -19.5t7 -23.5q3 -9 16 -18.5t16 -14.5q5 -8 7.5 -24t3.5 -19q4 -10 35.5 -111.5 t62.5 -150.5q18 -8 72 -8h10q60 0 80 -12q0 -41 -14 -54t-50 -22q-16 -4 -24 -4q-18 0 -52 7t-47 7h-8q-35 -4 -88.5 -32.5t-77.5 -28.5q-15 0 -30 6v12q0 23 26.5 42t60 38t44.5 39q-16 36 -36.5 127t-39.5 135q-14 33 -60.5 97.5t-60.5 87.5q-18 31 -30 48.5t-35.5 45 t-53.5 42t-65 15.5q-21 -18 -21 -43q0 -11 5.5 -36t5.5 -40v-18q0 -20 -1.5 -64.5t-1.5 -68.5q0 -12 1.5 -33t1.5 -33q0 -10 0.5 -60t2 -69.5t8.5 -50.5t21 -49q4 -4 20.5 -12t16.5 -17q0 -8 -4 -14q-7 -11 -17 -15t-30 -5t-29 -3q-72 -14 -127 -14q-15 0 -69 4h-23h-12 q-48 0 -64 23z" />
<glyph unicode="l" horiz-adv-x="798" d="M33 1343q3 25 37 25q8 0 26 -1t23 -1h2q7 0 38 0.5t42 1t38 2t42 3.5t35.5 5.5t36 8.5t28.5 12q6 -2 15 -12t18 -11v-8q0 -29 -19.5 -38t-56.5 -9h-10v-90v-199q0 -152 10 -254q2 -14 22.5 -134.5t20.5 -194.5q0 -36 -9.5 -99t-9.5 -94q0 -32 9 -66q168 -20 250 -32 q30 5 43 33t21 66t22 54h2q49 0 49 -55q0 -29 -13 -65t-26 -54q-1 -2 -11.5 -5t-11.5 -5q-6 -13 -10 -17.5t-8 -5.5t-17.5 -3t-29.5 -7q-11 -3 -25 -12.5t-18 -9.5q-21 0 -66.5 26.5t-75.5 28.5h-6q-17 0 -41.5 -10.5t-38.5 -12.5q-64 -12 -133 -12q-64 0 -116 12q-1 3 -2 7 t-2 6.5t-1 5.5q0 19 22.5 32t25.5 25q-27 197 -27 551q0 95 2 288.5t2 287.5q0 15 -13 20t-29.5 4t-33.5 1t-22 11zM283 723h2q10 0 10 8v4h-2q-10 0 -10 -8v-4z" />
<glyph unicode="m" horiz-adv-x="1187" d="M0 168q4 25 25 36t56.5 17t49.5 12q2 61 2 193q0 195 -14 524q-1 15 -7 95t-6 122q0 7 1.5 22.5t1.5 22.5q1 19 8.5 69.5t7.5 76.5q0 25 -6 49q-3 16 -23 16q-7 0 -23.5 -2t-23.5 -2q-26 0 -26 33q43 0 112 11.5t96 11.5q19 0 29 -2q12 -1 39.5 -13t38.5 -20 q18 -13 37 -49t40.5 -88t30.5 -70q2 -4 11 -11.5t10 -9.5q13 -34 23 -93.5t23.5 -105.5t41.5 -73q12 5 19.5 16t10.5 20.5t7 26.5t6 25q11 32 53 205q2 6 9 45t14 53q1 2 11 5t11 5q1 3 -0.5 12.5t0.5 10.5q24 30 73 62t79 36h4q6 0 30 -4.5t42 -5.5q23 -2 65 -2h29 q55 0 90 -8t55 -35q-5 -16 -24 -16q-12 0 -44 8t-46 8h-5q-26 -88 -26 -221q0 -45 3 -143t3 -148q0 -63 -2 -96q-1 -11 -5.5 -33.5t-4.5 -34.5q0 -15 5 -43t5 -43q0 -26 -15 -68t-18 -61q-1 -8 1.5 -15t5.5 -12t3 -6q0 -31 -15 -117t-15 -133q0 -44 10 -75q4 0 14 -1t15 -1 q14 0 42 1t42 1q51 0 71 -11q-13 -33 -40 -46t-72 -13q-22 0 -72 4h-23q-22 0 -68 -3t-69 -3q-70 0 -102 29q2 22 22 22q7 0 24.5 -4t24.5 -4q11 0 17 6q5 72 10 213t10 211q1 16 7 52.5t6 56.5v12q-1 29 -16 101t-17 116q-2 31 -2 94q0 129 12 264q-14 -1 -25.5 -9 t-14.5 -13t-13 -21q-8 -12 -14.5 -36t-8.5 -29q-7 -16 -31.5 -55.5t-33.5 -63.5q-10 -25 -25 -89t-35 -104t-59 -59q-29 13 -50 43t-31 61t-26 68t-34 58q-49 108 -88 272q-37 -71 -54 -305q-6 -74 -6 -148q0 -85 8.5 -253t8.5 -253v-63q1 -20 16.5 -30t33.5 -12.5t33 -13 t15 -30.5v-2h-6q-47 0 -139.5 -22.5t-131.5 -22.5q-67 0 -104 45zM150 1163q0 -23 14 -26q0 5 6 24t6 29q0 17 -12 22q-14 -14 -14 -49z" />
<glyph unicode="n" horiz-adv-x="1052" d="M-6 1378q2 15 9.5 24.5t22.5 15.5t26 8t33 4.5t30 3.5q27 32 112 32h27q2 -7 16 -12.5t17 -9.5q4 -4 6 -16t6 -17t21 -19.5t22 -23.5q3 -4 0.5 -20.5t-0.5 -22.5q2 -8 19 -40.5t24 -47.5q2 -3 4.5 -14t5.5 -17q4 -7 26 -35t30 -43q3 -6 5 -26t5 -27q2 -7 11.5 -18.5 t10.5 -14.5q4 -9 13.5 -35t17.5 -40q1 -2 11.5 -5.5t11.5 -5.5q4 -10 17.5 -35t23.5 -49t14 -47q12 -12 37.5 -53t48.5 -55q16 71 16 174q0 63 -9 201t-9 208q0 45 2 68q-4 15 -22 21t-37 6t-34.5 8t-15.5 27v4q42 18 103 18q25 0 55 -3t67 -8t58 -7q3 0 9 -1t9 -1 q12 0 36 2t36 2q47 0 72 -25q-10 -31 -45 -31q-15 0 -51.5 7.5t-55.5 7.5q-13 0 -33 -4q-24 -44 -24 -109q0 -29 6.5 -85t7.5 -79q4 -75 5 -219.5t5 -214.5v-20q0 -29 -6 -85t-6 -81q0 -21 2 -31q4 -25 27 -77.5t26 -61.5q1 -4 5.5 -20t7.5 -25q4 -11 15.5 -35t18.5 -44.5 t7 -37.5q0 -33 -31 -55q-1 0 -4 -1t-4 -1q-16 0 -20.5 10t-4.5 31v24q-12 7 -22 31l-11 24q-7 13 -22.5 35t-20.5 31q-8 14 -17.5 40t-14.5 36q-5 11 -21.5 45t-28.5 55.5t-26 40.5q-16 22 -54 60t-55 59q-2 2 -4.5 16t-5.5 17t-16 5t-17 5q-6 5 -12 13.5t-16 26t-15 25.5 q-4 6 -11 21.5t-11 21.5q-8 11 -33.5 32t-32.5 34q-5 7 -10 31.5t-10 33.5q-10 18 -35.5 69.5t-42.5 82.5q-23 -101 -23 -203q0 -67 11 -181.5t12 -158.5q0 -3 1 -10t1 -10q0 -15 -1 -43t-1 -41v-37q1 -16 6.5 -56t5.5 -63q23 -21 81 -53.5t81 -54.5q-14 -31 -42 -41.5 t-73 -10.5h-47q-23 0 -55 -4q-30 -5 -93 -32t-91 -27q-27 0 -43 16v6q0 20 16 29.5t35 17.5t24 23q9 396 13 500q0 9 -6.5 21t-6.5 22q0 15 6.5 43.5t6.5 40.5q0 28 -10.5 74.5t-12.5 68.5q-2 33 -2 103q0 42 2 132.5t2 139.5q0 61 -2 92q-5 12 -20 12q-9 0 -30.5 -7 t-29.5 -7q-12 0 -18 12zM731 1288q0 -18 10 -18q7 0 7 16q0 19 -7 19q-5 0 -10 -13v-4z" />
<glyph unicode="o" horiz-adv-x="831" d="M57 575q0 112 9 232q7 96 43 240q23 92 65 184q19 47 23 53q13 17 44.5 38.5t41.5 37.5q10 -2 32 -2q27 0 70 11.5t49 12.5h2q5 0 8 -5l2 -5q12 1 33.5 4.5t34.5 3.5q22 0 41 -8q86 -36 172 -315q4 -15 17 -47t16 -49q5 -22 7 -61t3 -48q8 -98 8 -137q0 -100 -18 -211 q-3 -20 -6.5 -53.5t-7 -58.5t-7.5 -40q-3 -10 -21 -30.5t-24 -34.5q-4 -9 -14 -37t-18 -39q-4 -6 -21.5 -21.5t-22.5 -21.5q-2 -3 -10.5 -12.5t-11 -12.5t-10 -10.5t-11.5 -11t-11.5 -9.5t-15 -10.5t-16.5 -9.5q-41 -20 -94 -20q-45 0 -106 16.5t-92 28.5t-99 41 q-84 135 -84 417zM248 391q0 -43 2 -61q5 -34 22.5 -91t20.5 -71q14 -2 59.5 -16.5t71.5 -14.5q24 0 43 8q12 5 20.5 17t22.5 39q21 35 33 65q4 12 6 42t6 44q1 3 9.5 15.5t10.5 17.5q1 2 11 43q8 46 12 98t6 130t4 108q4 94 4 145q0 43 -4 105q-6 69 -23 137.5t-51.5 123 t-76.5 54.5q-29 0 -56 -22q-50 -48 -86 -162q-1 -2 -11 -11t-11 -12q-2 -7 -0.5 -27.5t0.5 -27.5q-1 -6 -10.5 -21t-10.5 -22q-3 -20 -6 -58.5t-4 -50.5q-14 -115 -14 -225q0 -80 2 -121q0 -5 1 -16t1 -16q0 -25 -2 -74t-2 -72z" />
<glyph unicode="p" horiz-adv-x="739" d="M0 238q-1 13 5.5 17.5t19.5 4.5q7 0 24.5 -1t24.5 -1h14q37 175 37 428q0 108 -6 213q-10 215 -10 252q0 15 6 43t6 43q0 27 -13.5 102t-13.5 121q0 22 4 58q-3 16 -16 16q-8 0 -28 -8t-31 -8q-15 0 -23 10q3 11 13 20t19 13t28.5 11.5t27.5 10.5q120 55 274 55 q34 0 50 -2q91 -7 131 -32q2 -1 5 -10.5t5 -10.5q13 -6 42.5 -27t45.5 -28q41 -103 41 -279q0 -64 -8 -166q0 -4 -6.5 -14t-15 -23t-11.5 -18q-15 -24 -109 -129q-31 -4 -83.5 -30.5t-94.5 -26.5q-18 0 -28 2q-2 -20 -2 -66q0 -74 12 -270t12 -293v-20q3 -23 45 -29t51 -14 q-3 -33 -34 -33q-10 0 -32 5t-30 5q-122 5 -217 53q-5 2 -13 12t-9 11q-12 4 -54 9t-55 24zM205 1384q0 -41 12 -51q14 17 14 68q0 40 -14 51q-12 -15 -12 -68zM291 1444q0 -16 1 -50t1 -51q1 -29 6.5 -83t5.5 -72q0 -20 -3 -63t-3 -66q0 -97 27 -160q8 1 62 5t79 16 q2 1 5 11t5 11q5 4 17 5t16 5q10 9 19.5 20.5t14 18.5t12.5 21t9 16q29 48 33 78q4 50 4 76q0 87 -16.5 179t-42.5 157q-84 59 -185 59q-26 0 -53 -6q-14 -57 -14 -127z" />
<glyph unicode="q" horiz-adv-x="829" d="M20 655q0 59 5 95q2 24 15.5 80t16.5 71q28 153 43 205q5 17 16.5 52t16.5 56q11 40 25 66.5t41 65.5q22 30 29.5 40t25.5 28t38 26t48 14q35 8 109 8h98q43 0 63 2q5 -16 33 -27.5t33 -15.5q43 -84 43 -313v-107v-45q0 -34 -4 -65.5t-10 -69t-9 -61.5q-3 -22 -4.5 -82.5 t-5.5 -91.5q-9 -82 -22 -152q-4 -20 -18.5 -60t-14.5 -55q0 -16 6 -28t20 -27.5t19 -23.5q6 -8 20.5 -32t22.5 -34q5 -7 30.5 -35t35.5 -48t10 -46v-12q-11 -8 -25 -8q-6 0 -19 2t-20 2q-14 0 -22 -6q-16 2 -25.5 12t-18 28.5t-12.5 24.5q-32 5 -55 18t-56.5 43t-39.5 35 q-18 -6 -52.5 -26.5t-56.5 -26.5q-5 23 -35 23q-5 0 -16 -1t-16 -1h-9q-167 28 -227 98q-1 1 -11.5 10t-19.5 18t-12 15q-3 7 -5 26t-3.5 48t-3.5 47q-15 161 -15 241zM229 539q0 -3 1 -9.5t1 -9.5q4 -42 27.5 -112.5t26.5 -81.5q29 -23 75 -43q6 -3 18 -10.5t20.5 -11 t15.5 -3.5q11 0 22 14q8 11 8 21q0 16 -28.5 38.5t-32.5 37.5q-2 29 -28.5 68t-26.5 75v8q14 23 55 23q27 0 53 -11q7 -6 25 -38t41 -37q22 26 34 70t14 70t5 87q4 74 22.5 256t18.5 279q0 43 -8 137q-13 6 -42 30t-54 25h-3q-16 0 -52.5 -21.5t-59.5 -21.5h-6 q-43 -60 -73.5 -161t-45.5 -208q-8 -55 -8 -170v-75q0 -68 -2 -103q-1 -17 -7 -54t-6 -58zM240 1307q0 -12 12 -15q3 8 11 21.5t11 21.5q-2 2 -8 2q-10 0 -18 -10t-8 -20z" />
<glyph unicode="r" horiz-adv-x="837" d="M8 1337q2 13 11 26t17.5 20.5t25.5 21.5t22 18t20 17.5t23 20.5t21 15.5t24 12.5q11 5 56 8.5t63 24.5q51 -12 134.5 -45.5t104.5 -40.5q41 -54 41 -148q0 -72 -25.5 -150.5t-60.5 -136.5q3 -20 41.5 -23.5t46.5 -8.5q1 0 1.5 -3.5t1.5 -7t2 -4.5q2 -4 10 -12 q4 -4 13 -11t13 -11q15 -15 29 -52q4 -13 10 -27t13.5 -30.5t11.5 -26.5q27 -62 27 -118q0 -42 4 -62q2 -10 2 -63v-45v-17v-45q-1 -3 -5.5 -17.5t-3.5 -21.5q1 -5 4.5 -16.5t4.5 -16.5q10 -54 26 -96q20 -55 62 -110q5 -6 15 -19.5t15 -19.5q1 -2 4.5 -5.5t5 -6.5t1.5 -7 q0 -18 -49 -26q-37 -6 -76 -6h-21q-49 5 -59 24q-8 19 -8 45v25v47q0 115 -2 172q-8 186 -23 264q-10 65 -31 107q-6 13 -28 43l-9 10q-9 10 -16.5 17.5t-9.5 6.5q-12 -4 -16 -4q-10 0 -30 7.5t-28 7.5h-2q-11 -1 -22.5 -9t-20.5 -12q-6 -2 -53 -14t-66 -29q-4 -28 -4 -43 q0 -28 7.5 -74.5t7.5 -66.5q0 -15 -5 -41t-6 -37q0 -3 -1 -10t-1 -10q0 -11 2 -34.5t2 -35.5t-1 -35t-1 -35q0 -33 4 -47q3 -18 4 -50t3 -46q1 -5 6.5 -22t5.5 -27q0 -11 -2 -17q20 -8 79 -23.5t85 -29.5q-3 -35 -31 -35q-14 0 -46.5 12t-43.5 13q-29 2 -56 2h-26 q-11 0 -21 -1l-57 3q-39 4 -57 16h-4q-13 0 -32 -6t-32 -6q-12 0 -18 2q0 2 -1 6t-1 6q0 21 21 40t24 34q-4 184 -4 289q0 373 26 895q-5 8 -14 8t-26 -20.5t-27 -20.5q-14 0 -21 10zM258 850q77 13 138 123t61 231q0 33 -2 47q-3 22 -20 65.5t-25 53.5q-4 4 -16.5 17 t-17 17.5t-15.5 13.5t-18.5 12.5t-18 6.5t-21.5 3q-21 0 -33 -4q0 -74 -6 -244t-6 -260v-82z" />
<glyph unicode="s" horiz-adv-x="763" d="M27 1165q0 53 4 82q6 59 10 76q1 3 11 12t11 11q23 77 58 121.5t104 72.5q19 8 37 8t51 -8q47 -10 78 -29.5t64 -56.5q5 -6 15.5 -16.5l17 -17t11.5 -16t5 -18.5t-6 -18q-9 -6 -19 -6q-21 0 -49 37.5t-41 44.5q-16 -8 -37 -8h-24q-11 0 -27 -4q-12 -3 -30 -18t-33 -15 q-23 -56 -23 -142q0 -28 3 -84t3 -81q0 -42 -6 -72q2 0 6 -1t6 -1q20 0 41.5 18t38 39.5t41.5 41t51 22.5q1 0 3.5 1t3.5 1q34 0 92 -35q46 -25 118 -86q95 -335 109 -553v-27q0 -18 -1 -53t-1 -51q0 -29 2 -43q-14 -19 -53 -86q-40 -62 -78 -98q-7 -7 -50 -21t-59 -33 q-24 4 -36 4q-23 0 -72 -8t-72 -8h-14q-27 2 -78.5 15.5t-73.5 29.5q-73 54 -73 162q0 40 8 76q2 9 4 28t4.5 28t11 18.5t23.5 13.5h16q16 0 28 -5t24.5 -15t19.5 -13v-19q0 -30 -16.5 -71t-16.5 -62q0 -18 10 -45q36 -47 107 -47q86 0 219 70q27 49 27 102q0 36 -5 72 q-1 12 -3 35t-4 41.5t-5 31.5q-3 17 -16.5 49t-16.5 48q-6 31 -11.5 91t-8.5 83q-7 50 -16 157t-17 168h-14q-33 0 -60.5 -15t-44 -34.5t-40.5 -40t-48 -28.5q-30 -11 -84 -11h-22q-7 0 -22 -1t-23 -1q-47 63 -47 211zM176 1438q0 -2 2 -2q4 0 4 8q-6 -3 -6 -6zM182 1444 q6 3 6 4q0 2 -2 2q-4 0 -4 -6z" />
<glyph unicode="t" horiz-adv-x="770" d="M-10 1384q0 44 8 68q37 34 86.5 45.5t118.5 11.5q18 0 55 -1t57 -1q53 0 105 6q22 3 69.5 20t71.5 19h12q18 0 50 -6.5t36 -7.5q8 -2 27 -2h6q39 0 53 -23q0 -51 -26 -120t-27 -117q-32 4 -44 36.5t-17 81.5t-15 70h-14q-31 0 -75.5 -18.5t-51.5 -20.5q-35 -200 -35 -510 q0 -150 12 -421t13 -361q10 -20 39.5 -25.5t59.5 -11.5t40 -26q-3 -39 -80 -39q-50 0 -82 14q-7 4 -29 17.5t-36 19.5q-31 14 -94 21t-90 18v12q0 14 8.5 21.5t19 9.5t19 9.5t8.5 21.5q4 102 5.5 300t4.5 291q2 59 13.5 230t11.5 274q0 80 -2 123q-39 17 -99 17 q-59 0 -98 -17q-20 -6 -25.5 -34.5t-6.5 -64.5t-11 -50q-51 17 -51 120zM338 1401q0 -5 15 13q5 7 3 7q-4 0 -12 -8zM389 1163l2 -2q23 0 23 53q0 24 -4.5 47t-10.5 27q-10 -15 -10 -39q0 -10 3 -31t3 -30q0 -13 -6 -25z" />
<glyph unicode="u" d="M20 1360q0 23 3 47q58 20 120 20h27q1 -56 5.5 -276t4.5 -344q0 -19 -5 -60t-5 -61v-10q1 -14 8.5 -43.5t9.5 -44.5q4 -30 7 -80t5.5 -78t16.5 -58.5t41 -47.5q6 -5 16.5 -16t20.5 -19.5t20 -14.5q22 3 42.5 13t42.5 29.5t34.5 31.5t37 40t30.5 34q10 10 31.5 53t25.5 64 q4 24 4 39q0 14 -2 44.5t-2 47.5v16q0 14 1 46t1 50q0 184 -31 293q-1 3 -9.5 16t-8.5 15q-2 7 0 23.5t0 23.5q-1 4 -9.5 14.5t-10.5 16.5q-3 10 -16 64t-23 73q-3 5 -14 15t-18 21t-7 25v7q17 12 39 20t59.5 17t46.5 12q39 -8 39 -58q0 -16 -4 -54t-4 -58v-17 q2 -19 28 -137q3 -11 10.5 -33.5t10.5 -33.5q6 -23 12.5 -55.5t14 -78.5t12.5 -71q3 -16 15 -60t14 -67q10 -93 10 -217v-105q0 -112 10 -186q-16 -25 -46 -48.5t-56 -23.5q-5 0 -17 4q-22 0 -22 23q0 5 2 17t2 16q0 89 -31 188q-9 6 -14 6q-8 0 -14 -8.5t-11 -20.5t-8 -16 q-8 -10 -25 -25.5t-24 -23.5q-2 -3 -13.5 -17t-17 -20t-17.5 -19t-20.5 -19.5t-20.5 -14.5t-24 -12t-24 -5q-1 0 -3.5 -1t-3.5 -1q-13 0 -44.5 5t-47.5 6q-5 0 -21 -3.5t-26 -3.5q-12 0 -30 7q-26 13 -52 57t-45 61q-23 220 -30 586v10q0 33 5 111.5t5 122.5v39q-1 24 -7 84 t-6 92z" />
<glyph unicode="v" horiz-adv-x="860" d="M25 1399q0 13 11 17t30 3.5t26 1.5q156 37 266 37q26 0 58 -4q-4 -20 -14.5 -76.5t-15.5 -87.5t-10 -79.5t-5 -90.5q0 -39 2 -57q7 -86 55 -358q28 7 44 32t29.5 69t22.5 62q4 7 17 21t16 22q3 9 6 32.5t6 33.5q3 9 24.5 72.5t29.5 99.5q5 23 22.5 109.5t32.5 130.5 q21 3 76.5 23t87.5 20q26 0 51 -11v-6q0 -26 -19 -37t-48 -16.5t-40 -15.5q-13 -21 -20 -63.5t-12 -55.5q-3 -8 -16.5 -22.5t-16.5 -22.5q-4 -11 -6 -32.5t-6 -31.5q-16 -41 -43 -108q-6 -15 -27 -48.5t-27 -50.5q-6 -20 -12 -60.5t-10 -57.5q-5 -18 -21.5 -50.5 t-21.5 -48.5q-11 -31 -32 -100.5t-34 -106.5t-25 -79t-19.5 -73.5t-20.5 -85.5t-21 -87q-1 -4 -1 -30.5t-9 -40.5t-33 -15q-26 5 -26 51q0 27 4 47q-21 34 -21 121v35q0 41 -2 61q-5 81 -41.5 236t-44.5 229v23q0 10 1 28t1 27q0 3 -1 10t-1 10q-2 19 -10 55.5t-10 53.5 q-3 32 -7 147t-16 179q-8 2 -22 2q-17 0 -49 -7.5t-46 -7.5q-18 0 -34 13q-2 4 -2 10z" />
<glyph unicode="w" horiz-adv-x="1531" d="M-31 1309q1 18 13.5 27.5t26.5 11.5t37 2.5t32 1.5q78 12 108 12q21 0 33 -2q22 -94 64.5 -338.5t76.5 -366.5q12 0 22 9.5t14 18t10.5 27t7.5 21.5q14 33 34.5 100.5t30.5 94.5q3 7 4.5 26.5t5.5 28.5q1 2 11 13.5t12 19.5q6 23 9.5 74.5t10.5 76.5q2 8 16 28t17 26 t6.5 22t9 23.5t17.5 9.5q52 -16 88 -109q6 -15 7 -46t3 -42l8 -13q7 -13 14.5 -27.5t10.5 -22.5q9 -25 27.5 -74t25.5 -68q6 -17 27.5 -67t28.5 -74q5 -21 9 -66t15 -72.5t39 -45.5q23 48 44 101.5t48 128t39 106.5t38 108t47 129t46 99v20q0 16 -6 40t-6 38q119 18 231 18 q68 0 117 -8q3 -1 16 -2t20.5 -3t18 -6t15.5 -12t6 -20q-16 -8 -45 -8q-18 0 -58 5t-61 5q-41 0 -63 -12q-16 -13 -25.5 -35t-17 -52t-13.5 -44q-4 -11 -24 -51t-29 -68q-27 -74 -65 -207q-14 -49 -36.5 -184t-39.5 -195q-4 -13 -17 -42.5t-16 -45.5q-4 -18 -5.5 -51 t-4.5 -57t-11.5 -49.5t-30.5 -40.5t-57 -17q-17 25 -33 81.5t-22 70.5q-10 22 -38 59.5t-38 59.5q-6 11 -11.5 38.5t-8.5 36.5q-73 186 -76 195t-9.5 36t-12.5 40q-3 8 -16.5 27.5t-16.5 27.5q-6 16 -9.5 47.5t-12 54.5t-31.5 39q-5 -2 -10 -5t-9.5 -7.5t-7.5 -9t-6.5 -11 t-6 -10.5t-5 -12t-4 -11.5t-4 -11.5t-3.5 -10q-4 -11 -14.5 -44t-18.5 -52q-35 -83 -43 -98q-7 -12 -19.5 -33.5t-20 -34.5t-17.5 -36t-18 -48q-5 -16 -29.5 -85.5t-36.5 -108.5q-6 -24 -16.5 -72t-16.5 -70q-3 -11 -6.5 -32t-7 -35t-13.5 -29.5t-26 -24.5q-27 19 -35 48 t-8 77v47v45q-6 123 -53 374t-55 366q-2 28 -3 91t-5 111t-15 91q-6 6 -18 6q-9 0 -34 -10.5t-38 -10.5q-14 0 -29 15zM143 1280q0 -10 5.5 -18.5t15.5 -8.5q10 10 10 29q0 27 -20 27q-11 -11 -11 -29zM262 276q1 -9 0.5 -17.5t1.5 -16t8 -9.5q13 13 13 31q0 15 -13 15 q-1 0 -4.5 -1.5t-5.5 -1.5zM489 754q8 21 30 59.5t37 74t15 68.5q0 19 -6 37q-76 -145 -76 -219v-20zM1130 885q0 -3 3 -5q2 -2 4 -2h1q2 2 3 7q0 6 -6 6q-5 0 -5 -6zM1196 1178q2 0 5 -1t5 -1q22 0 33.5 19.5t11.5 45.5q0 30 -12 45q-1 -2 -6.5 -10t-7 -10.5l-6 -10 t-6 -11.5t-5 -11t-5 -12.5t-3.5 -12.5t-3 -14.5t-1 -15.5z" />
<glyph unicode="x" horiz-adv-x="1249" d="M45 57q7 26 51 35l37 6q1 0 4 1t4 1l9 9q4 6 12 22q14 23 44 84.5t52 93.5q11 16 31 33q16 13 28 31q9 17 20.5 50t14.5 40q9 22 25 35q3 2 8 7t8 7q13 12 13 14q1 3 2 9.5t2 9.5q4 12 8 16q4 5 13 13.5t13 13.5q17 17 25 33q5 8 9.5 24t6.5 21q4 11 27 43l31 43 q6 8 14.5 24.5t9.5 18.5q4 7 11.5 22.5t11.5 22.5q2 3 5 8t5 8l6 12v11q0 2 -2 4q-1 1 -3 4t-3 4q-3 6 -11.5 18.5t-11.5 18.5q-16 27 -51 88.5t-55 93.5q-13 22 -61 92q-20 30 -60 80q-13 16 -29 29q-5 3 -26 12q-39 13 -51 29q-6 6 -9 12q-2 2 -2 8v4q0 4 2 4 q6 1 18.5 4.5t18.5 4.5q59 8 86 10q3 0 35 3t49 3h4h11h12h4h2q2 0 5 -1t5 -1t7.5 -1t7.5 -1q7 0 8 -2h2q4 -7 0 -15q0 -2 -4 -6q-1 -1 -4 -3t-4 -3t-4.5 -3t-4.5 -3t-4 -3t-4 -3q-2 -1 -5 -1t-5 -1q-8 -4 -10 -4t-5 -1t-5 -1t-5.5 -1t-5.5 -1t-5 -1t-5 -1h-2 q41 -71 106 -181q11 -20 52 -86q10 -17 61 -80q2 -2 5 -6t5 -6q1 -1 2 -3t2 -3q3 -3 9.5 -4t9.5 2l6 6q4 2 8 6q3 2 8 11q6 8 17.5 25.5t17.5 25.5q3 4 10.5 13t10.5 13q1 1 3 4.5t3 4.5q4 4 4 8q1 3 4 10t4 10q9 26 37 80q3 6 10 19.5t10 19.5q18 37 19 39q4 15 -2 24 q-5 8 -14 11q-8 3 -15 10q-7 11 -4 25q0 2 2 2q1 0 3 1t3 1q2 0 6.5 1t6.5 1q4 1 13 3t13 3q31 8 49 10q74 14 158 14q99 0 193 -24q-10 -31 -50 -31q-10 0 -30 4t-21 4q-32 9 -49 2q-2 -1 -6 -1t-6 -1q-14 -5 -15 -6q-7 -7 -20 -29q-8 -14 -26 -37t-23 -30t-14.5 -21.5 t-14.5 -21.5q-22 -30 -29 -45q-3 -6 -10.5 -22.5t-11.5 -24.5q-2 -4 -11.5 -6.5t-11.5 -6.5q-6 -14 -19.5 -42.5t-19.5 -43.5q-17 -38 -45 -92q-4 -8 -24 -39q-10 -17 -10 -34q2 -29 32 -78q5 -9 15.5 -25t18.5 -29t13 -26q31 -69 39 -82q13 -20 29 -33q25 -25 29 -31 q7 -13 39 -90q12 -32 51 -84q5 -7 59 -75q18 -22 27 -35q2 -3 5 -9.5t5 -9.5q1 -1 3 -4t3 -4h11q8 -4 10 -8q3 -6 16 -6q24 -4 37 -4q60 -5 72 -8q39 -10 49 -39q-45 -10 -107 -17q-43 -5 -53 -4q-7 1 -22.5 5t-22.5 5h-12q-16 0 -70 -14q-47 -14 -67 -14h-11q-19 3 -30 14 q-5 3 -5 8q0 2 1.5 4t1.5 4q0 1 2 8t4 11l12 12q4 3 11 9.5t11 9.5q2 1 7.5 4t7.5 4q8 4 8 10q0 1 -1 4t-1 4v12q0 11 -8 35q-5 15 -15 35q-17 38 -36 66q-5 8 -15.5 23t-18.5 27.5t-14 24.5q-8 16 -43 93q-4 8 -12 23.5t-12 23.5q-2 4 -6 11t-6 11q-1 1 -5 9t-8 12 q-2 2 -7 6t-7 6t-5.5 8t-4.5 8q-6 12 -17 23q-6 7 -17 15t-15 12q-6 6 -13 6q-14 0 -20 -4t-17 -15q-19 -19 -51 -59q-29 -36 -47 -62q-2 -4 -24 -37.5t-31 -50.5q-4 -8 -6 -14q-1 -2 -4.5 -6t-4.5 -6q-1 -1 -12 -23q-5 -12 -13 -33.5t-13 -33.5q-7 -16 -23 -44t-20 -36 q-8 -16 -26 -46t-26 -46q-13 -26 -22 -50q-6 -12 0 -16q2 -2 8 -2q2 0 6 -1t6 -1q27 -6 58 -6q5 0 16 2t16 2q7 1 21.5 2t21.5 2q3 0 10.5 1t10.5 1l9 1q9 2 9 -1q5 -5 -4 -10q-3 -2 -8 -5t-8 -5q-14 -9 -19 -11q-22 -7 -38 -10q-28 -4 -41 -4q-7 0 -20.5 1t-20.5 1h-7 q-70 4 -100 4h-4q-55 0 -94 -10q-10 -2 -38.5 -10.5t-49 -12.5t-39.5 -4q-13 0 -33 4zM643 715q0 -14 10 -19q2 11 17.5 22t15.5 25v9h-4q-13 0 -26 -12.5t-13 -24.5z" />
<glyph unicode="y" horiz-adv-x="985" d="M20 1452q0 5 3 14q20 -2 59 -2q43 0 116 9.5t105 9.5q39 0 88 -17q-7 -12 -23.5 -30t-19.5 -23h-10q-16 0 -32.5 -10t-22.5 -12q-2 -8 -18.5 -61.5t-27 -106.5t-10.5 -105q0 -39 11.5 -134.5t11.5 -147.5v-31q-1 -12 -5.5 -36.5t-4.5 -27.5q0 -36 46.5 -71t71.5 -37 q13 -1 21 1t19 10t14 9q9 5 23 12l22 11q2 1 5 10t5 10q10 4 34.5 9.5t41.5 13.5q4 5 34 57.5t52 73.5v43q0 91 31 233.5t34 221.5q-5 12 -18 12q-7 0 -21 -5t-20 -5q-13 0 -17 8v88q36 27 125 27q42 0 121 -8t90 -9q-4 -19 -15.5 -31.5t-31.5 -24.5t-28 -20 q-40 -350 -43 -477v-16q0 -16 1 -69.5t1 -86.5q0 -59 -2 -88q0 -10 -5 -28t-6 -27q-5 -47 -6.5 -116t-3.5 -109.5t-17.5 -92.5t-47.5 -94q-18 -1 -61 -33t-71 -43q-16 -6 -60.5 -10.5t-68.5 -11.5q-11 -3 -41 -16.5t-47 -14.5q-1 0 -3 -1t-3 -1q-10 0 -33 5.5t-36 6.5h-19 q-13 0 -35.5 -1t-31.5 -1q-17 0 -23 2q-102 26 -102 97q0 46 49 98q4 4 13.5 15.5t14.5 16t13.5 11.5t18 9.5t20.5 2.5h16q-6 -6 -22.5 -19.5t-23 -20.5t-16.5 -19t-14 -24t-4 -27q0 -11 4 -31q16 -66 109 -66q34 0 80.5 10t80 20.5t78 26.5t54.5 19q51 41 51 150 q0 26 -4 78.5t-4 76.5q0 15 2 47t2 50q0 52 -15 86q-29 -12 -70.5 -64t-80.5 -65q-21 -7 -76 -7q-89 0 -141 17q-3 1 -5.5 11t-4.5 11q-4 2 -16.5 0t-16.5 0q-2 1 -5 10.5t-5 10.5q-9 4 -11.5 4.5t-6.5 3.5t-4 4.5t-3.5 8t-7.5 12.5q-2 3 -11.5 11t-11.5 11q-7 12 -20 36 t-23 40q-2 3 -11 17t-17.5 27t-14.5 21q-2 39 -2 111q0 91 17.5 251t17.5 249q0 14 -10.5 20.5t-23.5 8t-23.5 8t-10.5 20.5zM119 1282q2 -2 9 3t3 9h-2q-10 0 -10 -8v-4zM204 1314q2 -6 13 -9q4 4 8.5 16t3.5 24t-12 13q2 -6 -2 -15t-9 -15q-3 -5 -3 -10q0 -2 1 -4z M674 186h8q12 0 14 21t9 24h-5q-9 0 -14 -5t-6.5 -9.5t-3 -16t-2.5 -14.5z" />
<glyph unicode="z" horiz-adv-x="874" d="M33 27q0 17 16 49q1 2 11.5 0.5t11.5 -0.5q3 3 4.5 24t5.5 29q5 10 16 31.5t17 34.5q54 134 75 194q13 32 21 66q3 10 5.5 35.5t6.5 39.5q2 7 16.5 21.5t16.5 21.5q3 10 5 33.5t5 32.5q72 203 109 348q5 20 14 60t14.5 63.5t15.5 56t21 58.5q10 24 46 88.5t51 107.5 q-58 19 -115 19q-24 0 -81.5 -4t-94.5 -4h-13q-17 -6 -26 -26t-11.5 -40t-14.5 -36t-34 -17v6q0 17 -6 50t-6 50q0 24 12 45q26 23 80 23q12 0 34 -1t32 -1h6q10 0 26.5 6t26.5 6q12 0 35 -6t35 -6h6q16 1 49.5 10t48.5 12q18 3 67 8t80.5 12.5t59.5 22.5q27 0 27 -14 q0 -3 -2.5 -13.5t-3.5 -15.5q8 -2 22 -2q15 0 36.5 5.5t29.5 5.5q11 0 20 -9q-2 -26 -21 -43.5t-47 -33.5t-40 -31q-8 -9 -18 -37.5t-15 -38.5q-111 -220 -217 -500q-4 -11 -35 -96t-51 -131q-6 -16 -19.5 -50.5t-23.5 -58.5q-76 -178 -88 -270q18 -6 43 -6q22 0 69 7.5 t72 8.5h10q16 0 47 -3t45 -3q21 0 39 6q29 14 41 79.5t25 82.5h2q33 0 46 -12.5t13 -36.5q0 -8 -1 -18t-2.5 -22t-2.5 -19q-4 -28 -29 -76.5t-26 -52.5q-6 -2 -16 -2q-20 0 -50.5 10t-42.5 12q-32 4 -49 4q-85 0 -167.5 -28t-176 -75t-137.5 -63q-6 6 -6 17zM223 336 q0 -8 6 -8q4 0 4 8q0 6 -6 6q-4 0 -4 -6zM418 911q1 -1 2 -1q2 0 5 2q5 3 5 6l-2 4h-2q-3 0 -7 -4q-2 -2 -2 -4t1 -3zM590 1194q0 -21 12 -45q15 33 52 115t57 125q-3 10 -17 10h-6q0 -7 -1 -12t-2.5 -8.5t-5.5 -7.5t-6 -5.5t-8.5 -5t-7.5 -4.5v-2q0 -34 -33.5 -82.5 t-33.5 -77.5z" />
<glyph unicode="{" horiz-adv-x="671" d="M76 319q0 55 6 80q11 56 22 88q10 26 37 67t45.5 79t18.5 72q0 37 -25 75q-5 7 -20.5 29t-21.5 31.5t-13.5 29t-9.5 39.5q18 16 51 31.5t53.5 32t26.5 45.5q2 6 2 18q0 19 -7.5 40.5t-17 39t-10.5 21.5q-13 36 -52.5 123.5t-59 154t-19.5 133.5q0 69 22 131q61 39 140 39 q52 0 88 -16q65 -28 65 -57v-9q-9 -6 -20 -6q-14 0 -46.5 20.5t-56.5 20.5q-12 0 -18 -2q-3 -11 -17.5 -44.5t-15.5 -53.5v-17q0 -37 10.5 -67t29.5 -62.5t26 -48.5q4 -10 5.5 -33.5t4.5 -31.5q4 -10 17 -28t16 -26q55 -137 55 -227v-33q-23 -35 -65 -65q-9 -7 -29.5 -16 t-32.5 -18t-14 -21q2 -45 31 -99t34 -73q4 -14 4 -39q0 -19 -5 -34t-16 -36.5t-15 -32.5q-4 -10 -7 -29.5t-6 -25.5q-3 -8 -15 -22t-15 -21q-7 -18 -33 -109q-19 -65 -19 -96q0 -38 29 -98q8 -18 15.5 -30.5t17 -23t15 -16.5t19 -13.5t19.5 -10.5t26 -12t29 -13 q11 -5 32 -18t38.5 -20t34.5 -7h4q44 28 65 53.5t21 67.5q0 43 -10 53q-1 1 -11.5 -0.5t-11.5 0.5t-8.5 12t-9 13.5t-0.5 12t8 17.5q19 11 39 11q8 0 14.5 -2t12 -6.5t10 -8.5t8.5 -12.5t6.5 -13t5.5 -15t4.5 -14t4.5 -14.5t3 -13q9 -35 9 -57q0 -45 -31 -84 q-4 -5 -20 -18.5t-30 -23.5l-14 -11q-21 -8 -69 -8q-65 0 -105 8q-82 15 -147 63t-92 111q-39 85 -39 200z" />
<glyph unicode="|" horiz-adv-x="380" d="M96 1585q0 2 1 4.5t1 3.5q3 6 11 6q4 0 10 -1.5t14 -4.5t14 -4q3 -1 8.5 -2t8.5 -2q35 -13 68.5 -38t52.5 -50q18 -24 29.5 -60.5t16.5 -86.5t6.5 -75.5t2.5 -74.5v-20q0 -33 -3.5 -70.5t-10 -84.5t-9.5 -73q-16 -141 -20 -362q0 -10 -6.5 -32.5t-7.5 -31.5 q-1 -7 8 -26.5t8 -26.5q0 -15 -6.5 -40t-7.5 -34q-4 -50 -4 -69q0 -7 -1 -21.5t-1 -21.5q0 -29 2 -86t2 -80q0 -14 5 -55.5t5 -63.5q0 -25 -6 -43q-7 -18 -28.5 -29.5t-45.5 -11.5q-19 0 -27 4q-14 6 -24 19q-31 48 -31 137q0 20 2 56.5t2 53.5v17q0 39 4 117.5t4 117.5 q0 8 -1 23.5t-1 23.5q-1 25 -1 61.5t-1 55.5q-2 31 -2 92q0 23 1 69.5t1 70.5q0 270 -28 553q-2 18 -4 81.5t-9 96.5q-2 6 -2 18z" />
<glyph unicode="}" horiz-adv-x="671" d="M41 82q0 26 8 57q6 22 9.5 32.5t12 29.5t21 28t29.5 9q18 0 37 -11q7 -9 8 -17.5t-1 -12t-9 -13t-9 -12.5q-1 -2 -10 -0.5t-10 0.5q-12 -12 -12 -53t21.5 -67t66.5 -54h2q17 0 34.5 7t39 20t32.5 18q9 4 29 13t25.5 12t19.5 10.5t19 13.5t14.5 16.5t17 23t15.5 30.5 q28 58 28 98q0 41 -16 96q-26 91 -33 109q-3 7 -16.5 21t-16.5 22q-3 6 -4.5 25.5t-5.5 29.5q-5 13 -16.5 33t-17 36t-5.5 34t6 39q5 19 34.5 73t31.5 99q-2 12 -15 21t-33.5 18t-29.5 16q-38 27 -63 65q0 6 -1.5 17t-1.5 16q0 88 56 227q3 8 16 26t17 28q3 8 4.5 31.5 t5.5 33.5q6 15 25.5 48.5t29.5 63t10 66.5v17q-1 20 -15 54t-17 44q-6 2 -19 2q-24 0 -56 -20.5t-46 -20.5q-21 0 -21 15q0 14 14 27t22.5 17t29.5 13q36 16 88 16q78 0 139 -39q23 -65 23 -131q0 -67 -19.5 -133.5t-59 -154t-52.5 -123.5q-1 -3 -10 -21t-16 -39.5t-7 -40.5 q0 -12 2 -18q6 -29 26 -45.5t52.5 -32t50.5 -31.5q-2 -20 -9.5 -39t-14 -29.5t-21.5 -31.5t-21 -29q-24 -36 -24 -75q0 -46 47 -123.5t53 -94.5q13 -39 23 -88q8 -33 8 -80q0 -110 -41 -200q-27 -63 -91.5 -111t-146.5 -63q-40 -8 -106 -8q-47 0 -68 8q-57 41 -65 53 q-31 39 -31 84z" />
<glyph unicode="~" horiz-adv-x="958" d="M57 637q0 10 2 30.5t2 30.5q0 5 0.5 20.5t1 22.5t2 21t4 22.5t7 19.5t10.5 19q9 14 23 26.5t21 17.5t31.5 19t26.5 15t11.5 9.5t21.5 13.5q1 0 41 19.5t57 23.5h5q8 0 16.5 -6.5t9.5 -6.5q2 0 16.5 3t34.5 6.5t35 3.5h13q34 -4 94 -27.5t90 -28.5q35 -6 69 -6t119 13 q60 12 86 16q2 0 7 1.5t7.5 1.5h6.5t7 -2t5 -5q4 -8 4 -15q0 -16 -8 -28q-36 -62 -43 -92q-19 -80 -88 -107q-41 -16 -98 -16q-29 0 -41 2q-24 2 -67.5 16.5t-51.5 16.5q-7 2 -30 4.5t-36 5.5q-8 2 -27 12t-26 10h-8q-26 0 -68.5 -7t-64.5 -15q-29 -11 -76 -53 q-46 -42 -61 -58q-2 -2 -12 -14t-18 -18t-16 -7h-4q-24 0 -39 39q-4 12 -4 31z" />
<glyph unicode="&#xad;" horiz-adv-x="1157" d="M47 868q0 18 6 27q18 27 101 33q12 2 36 2q25 0 71 -3.5t58 -4.5q271 -10 328 -11q7 0 20.5 -1t20.5 -1q46 0 139.5 4.5t139.5 4.5q6 0 18.5 1t18.5 1q36 0 56.5 -10.5t20.5 -41.5q0 -12 -3 -33t-3 -32q0 -8 3 -23t3 -24q0 -7 -4 -15q-10 -16 -53 -16h-27q-41 0 -127 4 q-136 4 -202 4q-178 0 -336 -14q-62 -4 -90 -4q-24 0 -50 1t-58 2.5t-50 2.5q-1 6 -0.5 23.5t-1.5 23.5q-2 9 -12 24.5t-13 22.5q-10 30 -10 53z" />
<glyph unicode="&#x2000;" horiz-adv-x="859" />
<glyph unicode="&#x2001;" horiz-adv-x="1718" />
<glyph unicode="&#x2002;" horiz-adv-x="859" />
<glyph unicode="&#x2003;" horiz-adv-x="1718" />
<glyph unicode="&#x2004;" horiz-adv-x="572" />
<glyph unicode="&#x2005;" horiz-adv-x="429" />
<glyph unicode="&#x2006;" horiz-adv-x="286" />
<glyph unicode="&#x2007;" horiz-adv-x="286" />
<glyph unicode="&#x2008;" horiz-adv-x="214" />
<glyph unicode="&#x2009;" horiz-adv-x="343" />
<glyph unicode="&#x200a;" horiz-adv-x="95" />
<glyph unicode="&#x2010;" horiz-adv-x="1157" d="M47 868q0 18 6 27q18 27 101 33q12 2 36 2q25 0 71 -3.5t58 -4.5q271 -10 328 -11q7 0 20.5 -1t20.5 -1q46 0 139.5 4.5t139.5 4.5q6 0 18.5 1t18.5 1q36 0 56.5 -10.5t20.5 -41.5q0 -12 -3 -33t-3 -32q0 -8 3 -23t3 -24q0 -7 -4 -15q-10 -16 -53 -16h-27q-41 0 -127 4 q-136 4 -202 4q-178 0 -336 -14q-62 -4 -90 -4q-24 0 -50 1t-58 2.5t-50 2.5q-1 6 -0.5 23.5t-1.5 23.5q-2 9 -12 24.5t-13 22.5q-10 30 -10 53z" />
<glyph unicode="&#x2011;" horiz-adv-x="1157" d="M47 868q0 18 6 27q18 27 101 33q12 2 36 2q25 0 71 -3.5t58 -4.5q271 -10 328 -11q7 0 20.5 -1t20.5 -1q46 0 139.5 4.5t139.5 4.5q6 0 18.5 1t18.5 1q36 0 56.5 -10.5t20.5 -41.5q0 -12 -3 -33t-3 -32q0 -8 3 -23t3 -24q0 -7 -4 -15q-10 -16 -53 -16h-27q-41 0 -127 4 q-136 4 -202 4q-178 0 -336 -14q-62 -4 -90 -4q-24 0 -50 1t-58 2.5t-50 2.5q-1 6 -0.5 23.5t-1.5 23.5q-2 9 -12 24.5t-13 22.5q-10 30 -10 53z" />
<glyph unicode="&#x2012;" horiz-adv-x="1157" d="M47 868q0 18 6 27q18 27 101 33q12 2 36 2q25 0 71 -3.5t58 -4.5q271 -10 328 -11q7 0 20.5 -1t20.5 -1q46 0 139.5 4.5t139.5 4.5q6 0 18.5 1t18.5 1q36 0 56.5 -10.5t20.5 -41.5q0 -12 -3 -33t-3 -32q0 -8 3 -23t3 -24q0 -7 -4 -15q-10 -16 -53 -16h-27q-41 0 -127 4 q-136 4 -202 4q-178 0 -336 -14q-62 -4 -90 -4q-24 0 -50 1t-58 2.5t-50 2.5q-1 6 -0.5 23.5t-1.5 23.5q-2 9 -12 24.5t-13 22.5q-10 30 -10 53z" />
<glyph unicode="&#x2013;" horiz-adv-x="1147" d="M47 868q0 18 6 27q18 27 100 33q12 2 36 2t69.5 -3.5t57.5 -4.5q269 -10 325 -11q7 0 20.5 -1t20.5 -1q45 0 138 4.5t138 4.5q6 0 18.5 1t18.5 1q35 0 55.5 -10.5t20.5 -41.5q0 -12 -3 -33t-3 -32q0 -8 3 -23t3 -24q0 -7 -4 -15q-10 -16 -52 -16h-27q-41 0 -126 4 q-135 4 -200 4q-176 0 -333 -14q-61 -4 -89 -4q-24 0 -49.5 1t-57.5 2.5t-49 2.5q-1 6 -0.5 23.5t-1.5 23.5q-2 9 -12 24.5t-13 22.5q-10 30 -10 53z" />
<glyph unicode="&#x2014;" horiz-adv-x="2171" d="M47 868q0 18 12 27q36 27 200 33q24 2 71 2q50 0 141 -3.5t115 -4.5q536 -10 649 -11q14 0 41 -1t41 -1q91 0 276 4.5t276 4.5q12 0 37 1t36 1q72 0 112.5 -10.5t40.5 -41.5q0 -12 -6 -33t-6 -32q0 -8 6 -23t6 -24q0 -7 -8 -15q-20 -16 -105 -16h-53q-82 0 -252 4 q-269 4 -400 4q-353 0 -666 -14q-122 -4 -178 -4q-47 0 -98.5 1t-115 2.5t-99.5 2.5q-2 6 -1 23.5t-3 23.5q-4 9 -23.5 24.5t-25.5 22.5q-20 30 -20 53z" />
<glyph unicode="&#x202f;" horiz-adv-x="343" />
<glyph unicode="&#x205f;" horiz-adv-x="429" />
<glyph unicode="&#x25fc;" horiz-adv-x="1402" d="M0 0v1403h1403v-1403h-1403z" />
</font>
</defs>
</svg>
